<?xml version="1.0" encoding="UTF-8" standalone="no"?>
<svg
   version="1.1"
   viewBox="0 0 461.56573 427.5332"
   fill="none"
   stroke="none"
   stroke-linecap="square"
   stroke-miterlimit="10"
   id="svg58"
   sodipodi:docname="prototype_intake_state_machine.svg"
   width="461.56573"
   height="427.5332"
   inkscape:version="1.3.2 (091e20e, 2023-11-25, custom)"
   xmlns:inkscape="http://www.inkscape.org/namespaces/inkscape"
   xmlns:sodipodi="http://sodipodi.sourceforge.net/DTD/sodipodi-0.dtd"
   xmlns="http://www.w3.org/2000/svg"
   xmlns:svg="http://www.w3.org/2000/svg">
  <defs
     id="defs58">
    <clipPath
       clipPathUnits="userSpaceOnUse"
       id="clipPath58">
      <rect
         style="fill:#000000;fill-opacity:0"
         id="rect59"
         width="461.56573"
         height="427.5332"
         x="31.905466"
         y="16.307238" />
    </clipPath>
  </defs>
  <sodipodi:namedview
     id="namedview58"
     pagecolor="#ffffff"
     bordercolor="#000000"
     borderopacity="0.25"
     inkscape:showpageshadow="2"
     inkscape:pageopacity="0.0"
     inkscape:pagecheckerboard="0"
     inkscape:deskcolor="#d1d1d1"
     inkscape:zoom="1.4104167"
     inkscape:cx="448.09453"
     inkscape:cy="253.4712"
     inkscape:window-width="1920"
     inkscape:window-height="991"
     inkscape:window-x="-9"
     inkscape:window-y="-9"
     inkscape:window-maximized="1"
     inkscape:current-layer="svg58" />
  <clipPath
     id="p.0">
    <path
       d="M 0,0 H 960 V 540 H 0 Z"
       clip-rule="nonzero"
       id="path1" />
  </clipPath>
  <rect
     style="fill:#ffffff;fill-opacity:1"
     id="rect60"
     width="462.27475"
     height="425.40622"
     x="0.70901042"
     y="1.4180206" />
  <g
     clip-path="url(#clipPath58)"
     id="g58"
     transform="translate(-31.905466,-16.307238)">
    <path
       fill="#000000"
       fill-opacity="0"
       d="M 0,0 H 960 V 540 H 0 Z"
       fill-rule="evenodd"
       id="path2" />
    <path
       fill="#000000"
       fill-opacity="0"
       d="m 296.40134,181.99002 c 0,0.0158 0.0157,0.0236 0.0315,0.0315 0.0157,0.008 0.0315,0.0157 0.0315,0.0315"
       fill-rule="evenodd"
       id="path3" />
    <path
       stroke="#000000"
       stroke-width="1"
       stroke-linejoin="round"
       stroke-linecap="butt"
       d="m 296.40134,181.99002 c 0,0.0158 0.0157,0.0236 0.0315,0.0315 0.0157,0.008 0.0315,0.0157 0.0315,0.0315"
       fill-rule="evenodd"
       id="path4" />
    <path
       fill="#cfe2f3"
       d="m 39.55118,57.805775 v 0 c 0,-21.004215 17.70414,-38.031494 39.54331,-38.031494 v 0 c 10.487534,0 20.545532,4.006878 27.96134,11.139168 7.4158,7.132288 11.58197,16.805746 11.58197,26.892328 v 0 c 0,21.004215 -17.70414,38.031498 -39.543309,38.031498 v 0 c -21.839169,0 -39.54331,-17.027283 -39.54331,-38.031498 z"
       fill-rule="evenodd"
       id="path5" />
    <path
       stroke="#000000"
       stroke-width="1"
       stroke-linejoin="round"
       stroke-linecap="butt"
       d="m 39.55118,57.805775 v 0 c 0,-21.004215 17.70414,-38.031494 39.54331,-38.031494 v 0 c 10.487534,0 20.545532,4.006878 27.96134,11.139168 7.4158,7.132288 11.58197,16.805746 11.58197,26.892328 v 0 c 0,21.004215 -17.70414,38.031498 -39.543309,38.031498 v 0 c -21.839169,0 -39.54331,-17.027283 -39.54331,-38.031498 z"
       fill-rule="evenodd"
       id="path6" />
    <path
       fill="#000000"
       d="m 62.918705,59.97827 1.437504,-0.125 q 0.09375,0.859375 0.46875,1.421875 0.375,0.546875 1.15625,0.890625 0.78125,0.328125 1.75,0.328125 0.875,0 1.53125,-0.25 0.671875,-0.265625 0.984375,-0.703125 0.328125,-0.453125 0.328125,-0.984375 0,-0.546875 -0.3125,-0.9375 -0.3125,-0.40625 -1.03125,-0.6875 -0.453125,-0.171875 -2.03125,-0.546875 -1.578125,-0.390625 -2.21875,-0.71875 -0.8125,-0.4375 -1.218754,-1.0625 -0.40625,-0.640625 -0.40625,-1.4375 0,-0.859375 0.484375,-1.609375 0.500004,-0.765625 1.437504,-1.15625 0.953125,-0.390625 2.109375,-0.390625 1.28125,0 2.25,0.421875 0.96875,0.40625 1.484375,1.203125 0.53125,0.796875 0.578125,1.796875 l -1.453125,0.109375 q -0.125,-1.078125 -0.796875,-1.625 -0.671875,-0.5625 -2,-0.5625 -1.375,0 -2,0.5 -0.625,0.5 -0.625,1.21875 0,0.609375 0.4375,1.015625 0.4375,0.390625 2.28125,0.8125 1.859375,0.421875 2.546875,0.734375 1,0.453125 1.46875,1.171875 0.484375,0.703125 0.484375,1.625 0,0.90625 -0.53125,1.71875 -0.515625,0.8125 -1.5,1.265625 -0.984375,0.453125 -2.203125,0.453125 -1.5625,0 -2.609375,-0.453125 -1.046875,-0.46875 -1.656254,-1.375 -0.59375,-0.90625 -0.625,-2.0625 z m 14.078129,2.421875 0.203125,1.25 q -0.59375,0.125 -1.0625,0.125 -0.765625,0 -1.1875,-0.234375 -0.421875,-0.25 -0.59375,-0.640625 -0.171875,-0.40625 -0.171875,-1.671875 v -4.765625 h -1.03125 v -1.09375 h 1.03125 v -2.0625 l 1.40625,-0.84375 v 2.90625 h 1.40625 v 1.09375 h -1.40625 v 4.84375 q 0,0.609375 0.0625,0.78125 0.07813,0.171875 0.25,0.28125 0.171875,0.09375 0.484375,0.09375 0.234375,0 0.609375,-0.0625 z m 6.789063,0.234375 q -0.78125,0.671875 -1.5,0.953125 -0.71875,0.265625 -1.546875,0.265625 -1.375,0 -2.109375,-0.671875 -0.734375,-0.671875 -0.734375,-1.703125 0,-0.609375 0.28125,-1.109375 0.28125,-0.515625 0.71875,-0.8125 0.453125,-0.3125 1.015625,-0.46875 0.421875,-0.109375 1.25,-0.203125 1.703125,-0.203125 2.515625,-0.484375 0,-0.296875 0,-0.375 0,-0.859375 -0.390625,-1.203125 -0.546875,-0.484375 -1.609375,-0.484375 -0.984375,0 -1.46875,0.359375 -0.46875,0.34375 -0.6875,1.21875 l -1.375,-0.1875 q 0.1875,-0.875 0.609375,-1.421875 0.4375,-0.546875 1.25,-0.828125 0.8125,-0.296875 1.875,-0.296875 1.0625,0 1.71875,0.25 0.671875,0.25 0.984375,0.625 0.3125,0.375 0.4375,0.953125 0.07813,0.359375 0.07813,1.296875 v 1.875 q 0,1.96875 0.07813,2.484375 0.09375,0.515625 0.359375,1 h -1.46875 q -0.21875,-0.4375 -0.28125,-1.03125 z m -0.109375,-3.140625 q -0.765625,0.3125 -2.296875,0.53125 -0.875,0.125 -1.234375,0.28125 -0.359375,0.15625 -0.5625,0.46875 -0.1875,0.296875 -0.1875,0.65625 0,0.5625 0.421875,0.9375 0.4375,0.375 1.25,0.375 0.8125,0 1.4375,-0.34375 0.640625,-0.359375 0.9375,-0.984375 0.234375,-0.46875 0.234375,-1.40625 z m 3.585937,4.171875 v -8.296875 h 1.265625 v 1.25 q 0.484375,-0.875 0.890625,-1.15625 0.40625,-0.28125 0.90625,-0.28125 0.703125,0 1.4375,0.453125 l -0.484375,1.296875 q -0.515625,-0.296875 -1.03125,-0.296875 -0.453125,0 -0.828125,0.28125 -0.359375,0.265625 -0.515625,0.765625 -0.234375,0.75 -0.234375,1.640625 v 4.34375 z m 8.40625,-1.265625 0.203125,1.25 q -0.59375,0.125 -1.0625,0.125 -0.765625,0 -1.1875,-0.234375 -0.421875,-0.25 -0.59375,-0.640625 -0.171875,-0.40625 -0.171875,-1.671875 v -4.765625 h -1.03125 v -1.09375 h 1.03125 v -2.0625 l 1.40625,-0.84375 v 2.90625 h 1.40625 v 1.09375 h -1.40625 v 4.84375 q 0,0.609375 0.0625,0.78125 0.07813,0.171875 0.25,0.28125 0.171875,0.09375 0.484375,0.09375 0.234375,0 0.609375,-0.0625 z"
       fill-rule="nonzero"
       id="path7" />
    <path
       fill="#000000"
       fill-opacity="0"
       d="m 107.05583,84.698105 40.81889,34.110235"
       fill-rule="evenodd"
       id="path8" />
    <path
       stroke="#000000"
       stroke-width="1"
       stroke-linejoin="round"
       stroke-linecap="butt"
       d="m 107.05582,84.698105 36.21482,30.262835"
       fill-rule="evenodd"
       id="path9" />
    <path
       fill="#000000"
       stroke="#000000"
       stroke-width="1"
       stroke-linecap="butt"
       d="m 142.2115,116.22839 4.54143,1.64252 -2.42314,-4.17742 z"
       fill-rule="evenodd"
       id="path10" />
    <path
       fill="#cfe2f3"
       d="m 134.61942,148.65355 v 0 c 0,-23.31773 20.26353,-42.22048 45.25986,-42.22048 v 0 c 24.9963,0 45.25984,18.90276 45.25984,42.22048 v 0 c 0,23.31772 -20.26354,42.22046 -45.25984,42.22046 v 0 c -24.99633,0 -45.25986,-18.90274 -45.25986,-42.22046 z"
       fill-rule="evenodd"
       id="path11" />
    <path
       stroke="#000000"
       stroke-width="1"
       stroke-linejoin="round"
       stroke-linecap="butt"
       d="m 134.61942,148.65355 v 0 c 0,-23.31773 20.26353,-42.22048 45.25986,-42.22048 v 0 c 24.9963,0 45.25984,18.90276 45.25984,42.22048 v 0 c 0,23.31772 -20.26354,42.22046 -45.25984,42.22046 v 0 c -24.99633,0 -45.25986,-18.90274 -45.25986,-42.22046 z"
       fill-rule="evenodd"
       id="path12" />
    <path
       fill="#000000"
       d="m 158.07263,150.40791 1.0625,-0.0937 q 0.0781,0.65625 0.35937,1.0625 0.28125,0.40625 0.85938,0.67187 0.59375,0.25 1.32812,0.25 0.64063,0 1.14063,-0.1875 0.5,-0.20312 0.73437,-0.53125 0.25,-0.34375 0.25,-0.73437 0,-0.40625 -0.23437,-0.70313 -0.23438,-0.3125 -0.76563,-0.51562 -0.35937,-0.14063 -1.54687,-0.42188 -1.17188,-0.28125 -1.64063,-0.53125 -0.625,-0.32812 -0.92187,-0.79687 -0.29688,-0.48438 -0.29688,-1.07813 0,-0.64062 0.35938,-1.20312 0.375,-0.57813 1.07812,-0.85938 0.71875,-0.29687 1.57813,-0.29687 0.95312,0 1.6875,0.3125 0.73437,0.29687 1.125,0.90625 0.39062,0.59375 0.42187,1.34375 l -1.09375,0.0781 q -0.0937,-0.8125 -0.60937,-1.21875 -0.5,-0.42187 -1.48438,-0.42187 -1.03125,0 -1.5,0.375 -0.46875,0.375 -0.46875,0.90625 0,0.46875 0.32813,0.76562 0.32812,0.29688 1.70312,0.60938 1.39063,0.3125 1.90625,0.54687 0.75,0.35938 1.10938,0.89063 0.35937,0.51562 0.35937,1.21875 0,0.6875 -0.39062,1.29687 -0.39063,0.59375 -1.125,0.9375 -0.73438,0.32813 -1.65625,0.32813 -1.17188,0 -1.96875,-0.32813 -0.78125,-0.34375 -1.23438,-1.03125 -0.4375,-0.6875 -0.45312,-1.54687 z m 10.55078,1.82812 0.15625,0.92188 q -0.45312,0.0937 -0.79687,0.0937 -0.57813,0 -0.89063,-0.17188 -0.3125,-0.1875 -0.45312,-0.48437 -0.125,-0.29688 -0.125,-1.25 v -3.57813 h -0.76563 v -0.8125 h 0.76563 v -1.54687 l 1.04687,-0.625 v 2.17187 h 1.0625 v 0.8125 h -1.0625 v 3.64063 q 0,0.45312 0.0469,0.57812 0.0625,0.125 0.1875,0.20313 0.125,0.0781 0.35937,0.0781 0.1875,0 0.46875,-0.0312 z m 0.64649,-2.17187 q 0,-1.73438 0.95312,-2.5625 0.79688,-0.6875 1.95313,-0.6875 1.28125,0 2.09375,0.84375 0.82812,0.82812 0.82812,2.3125 0,1.20312 -0.35937,1.89062 -0.35938,0.6875 -1.0625,1.07813 -0.6875,0.375 -1.5,0.375 -1.29688,0 -2.10938,-0.82813 -0.79687,-0.84375 -0.79687,-2.42187 z m 1.07812,0 q 0,1.1875 0.51563,1.78125 0.53125,0.59375 1.3125,0.59375 0.79687,0 1.3125,-0.59375 0.51562,-0.59375 0.51562,-1.8125 0,-1.15625 -0.53125,-1.75 -0.51562,-0.59375 -1.29687,-0.59375 -0.78125,0 -1.3125,0.59375 -0.51563,0.57812 -0.51563,1.78125 z m 5.98633,5.5 v -8.60938 h 0.95312 v 0.79688 q 0.34375,-0.46875 0.76563,-0.70313 0.4375,-0.23437 1.04687,-0.23437 0.79686,0 1.40624,0.40625 0.60937,0.40625 0.90625,1.15625 0.3125,0.75 0.3125,1.64062 0,0.95313 -0.34375,1.71875 -0.32813,0.76563 -0.98438,1.17188 -0.65623,0.40625 -1.37498,0.40625 -0.53125,0 -0.95313,-0.21875 -0.42187,-0.23438 -0.6875,-0.5625 v 3.03125 z m 0.95312,-5.46875 q 0,1.20312 0.48438,1.78125 0.48437,0.5625 1.17187,0.5625 0.70313,0 1.20311,-0.59375 0.5,-0.59375 0.5,-1.84375 0,-1.1875 -0.48437,-1.76563 -0.48436,-0.59375 -1.17186,-0.59375 -0.67188,0 -1.1875,0.625 -0.51563,0.625 -0.51563,1.82813 z m 5.72069,5.46875 v -8.60938 h 0.95313 v 0.79688 q 0.34375,-0.46875 0.76562,-0.70313 0.4375,-0.23437 1.04688,-0.23437 0.79687,0 1.40625,0.40625 0.60937,0.40625 0.90625,1.15625 0.3125,0.75 0.3125,1.64062 0,0.95313 -0.34375,1.71875 -0.32813,0.76563 -0.98438,1.17188 -0.65625,0.40625 -1.375,0.40625 -0.53125,0 -0.95312,-0.21875 -0.42188,-0.23438 -0.6875,-0.5625 v 3.03125 z m 0.95313,-5.46875 q 0,1.20312 0.48437,1.78125 0.48438,0.5625 1.17188,0.5625 0.70312,0 1.20312,-0.59375 0.5,-0.59375 0.5,-1.84375 0,-1.1875 -0.48437,-1.76563 -0.48438,-0.59375 -1.17188,-0.59375 -0.67187,0 -1.1875,0.625 -0.51562,0.625 -0.51562,1.82813 z m 9.9707,1.07812 1.09375,0.125 q -0.25,0.95313 -0.95313,1.48438 -0.70312,0.53125 -1.78125,0.53125 -1.35937,0 -2.17187,-0.84375 -0.79688,-0.84375 -0.79688,-2.35938 0,-1.5625 0.8125,-2.42187 0.8125,-0.875 2.09375,-0.875 1.25,0 2.03125,0.84375 0.79688,0.84375 0.79688,2.39062 0,0.0937 0,0.28125 h -4.64063 q 0.0625,1.03125 0.57813,1.57813 0.51562,0.53125 1.29687,0.53125 0.57813,0 0.98438,-0.29688 0.42187,-0.3125 0.65625,-0.96875 z m -3.45313,-1.70312 h 3.46875 q -0.0625,-0.79688 -0.39062,-1.1875 -0.51563,-0.60938 -1.3125,-0.60938 -0.73438,0 -1.23438,0.48438 -0.48437,0.48437 -0.53125,1.3125 z m 9.90821,3.70312 v -0.78125 q -0.59375,0.92188 -1.73438,0.92188 -0.75,0 -1.375,-0.40625 -0.625,-0.42188 -0.96875,-1.15625 -0.34375,-0.73438 -0.34375,-1.6875 0,-0.92188 0.3125,-1.6875 0.3125,-0.76563 0.9375,-1.15625 0.625,-0.40625 1.39063,-0.40625 0.5625,0 1,0.23437 0.4375,0.23438 0.71875,0.60938 v -3.07813 h 1.04687 v 8.59375 z m -3.32813,-3.10937 q 0,1.20312 0.5,1.79687 0.5,0.57813 1.1875,0.57813 0.6875,0 1.17188,-0.5625 0.48437,-0.5625 0.48437,-1.71875 0,-1.28125 -0.5,-1.875 -0.48437,-0.59375 -1.20312,-0.59375 -0.70313,0 -1.17188,0.57812 -0.46875,0.5625 -0.46875,1.79688 z"
       fill-rule="nonzero"
       id="path13" />
    <path
       fill="#000000"
       fill-opacity="0"
       d="m 225.13911,148.65355 149.6693,-20"
       fill-rule="evenodd"
       id="path14" />
    <path
       stroke="#000000"
       stroke-width="1"
       stroke-linejoin="round"
       stroke-linecap="butt"
       d="M 225.13911,148.65355 368.86126,129.44824"
       fill-rule="evenodd"
       id="path15" />
    <path
       fill="#000000"
       stroke="#000000"
       stroke-width="1"
       stroke-linecap="butt"
       d="m 369.08005,131.08543 4.27933,-2.23827 -4.71689,-1.0361 z"
       fill-rule="evenodd"
       id="path16" />
    <path
       fill="#cfe2f3"
       d="m 374.8189,128.66667 v 0 c 0,-24.28314 21.10254,-43.968506 47.13385,-43.968506 v 0 c 26.03131,0 47.13385,19.685366 47.13385,43.968506 v 0 c 0,24.28313 -21.10254,43.96851 -47.13385,43.96851 v 0 c -26.03131,0 -47.13385,-19.68538 -47.13385,-43.96851 z"
       fill-rule="evenodd"
       id="path17" />
    <path
       stroke="#000000"
       stroke-width="1"
       stroke-linejoin="round"
       stroke-linecap="butt"
       d="m 374.8189,128.66667 v 0 c 0,-24.28314 21.10254,-43.968506 47.13385,-43.968506 v 0 c 26.03131,0 47.13385,19.685366 47.13385,43.968506 v 0 c 0,24.28313 -21.10254,43.96851 -47.13385,43.96851 v 0 c -26.03131,0 -47.13385,-19.68538 -47.13385,-43.96851 z"
       fill-rule="evenodd"
       id="path18" />
    <path
       fill="#000000"
       d="m 399.86224,133.46666 v -9.54687 h 1.25 v 9.54687 z m 3.32797,0 v -6.90624 h 1.0625 v 0.98437 q 0.75,-1.14062 2.1875,-1.14062 0.625,0 1.15625,0.21875 0.53125,0.21875 0.78125,0.59375 0.26563,0.35937 0.375,0.85936 0.0625,0.32813 0.0625,1.14063 v 4.25 h -1.17187 v -4.20313 q 0,-0.71875 -0.14063,-1.0625 -0.14062,-0.35936 -0.48437,-0.56249 -0.34375,-0.21875 -0.8125,-0.21875 -0.75,0 -1.29688,0.46875 -0.54687,0.46874 -0.54687,1.79687 v 3.78125 z m 9.97498,-1.04688 0.17187,1.03125 q -0.5,0.10938 -0.89062,0.10938 -0.64063,0 -1,-0.20313 -0.34375,-0.20312 -0.48438,-0.53125 -0.14062,-0.32812 -0.14062,-1.39062 v -3.96874 h -0.85938 v -0.90625 h 0.85938 v -1.71875 l 1.17187,-0.70313 v 2.42188 h 1.17188 v 0.90625 h -1.17188 v 4.04686 q 0,0.5 0.0469,0.64063 0.0625,0.14062 0.20312,0.23437 0.14063,0.0781 0.40625,0.0781 0.20313,0 0.51563,-0.0469 z m 5.65613,0.1875 q -0.65625,0.5625 -1.26563,0.79688 -0.59375,0.21875 -1.28125,0.21875 -1.14062,0 -1.75,-0.54688 -0.60937,-0.5625 -0.60937,-1.4375 0,-0.5 0.21875,-0.92187 0.23437,-0.42188 0.60937,-0.67188 0.375,-0.25 0.84375,-0.39062 0.34375,-0.0781 1.04688,-0.17188 1.42187,-0.17187 2.09375,-0.40625 0,-0.23437 0,-0.29687 0,-0.71875 -0.32813,-1.01562 -0.45312,-0.39062 -1.34375,-0.39062 -0.8125,0 -1.21875,0.29687 -0.39062,0.28125 -0.57812,1.01562 l -1.14063,-0.15625 q 0.15625,-0.73437 0.51563,-1.18749 0.35937,-0.45313 1.03125,-0.6875 0.67187,-0.25 1.5625,-0.25 0.89062,0 1.4375,0.20312 0.5625,0.20313 0.8125,0.53125 0.26562,0.3125 0.375,0.79688 0.0469,0.29686 0.0469,1.07811 v 1.5625 q 0,1.625 0.0781,2.0625 0.0781,0.4375 0.29687,0.82813 h -1.21875 q -0.1875,-0.35938 -0.23437,-0.85938 z m -0.0937,-2.60937 q -0.64063,0.26562 -1.92188,0.4375 -0.71875,0.10937 -1.01562,0.25 -0.29688,0.125 -0.46875,0.375 -0.15625,0.25 -0.15625,0.54687 0,0.46875 0.34375,0.78125 0.35937,0.3125 1.04687,0.3125 0.67188,0 1.20313,-0.29687 0.53125,-0.29688 0.78125,-0.8125 0.1875,-0.39063 0.1875,-1.17188 z m 3.00622,3.46875 v -9.54687 h 1.17188 v 5.45312 l 2.76562,-2.81249 h 1.51563 l -2.64063,2.56249 2.90625,4.34375 h -1.4375 l -2.28125,-3.53125 -0.82812,0.79688 v 2.73437 z m 6.66406,-8.18749 v -1.35938 h 1.17188 v 1.35938 z m 0,8.18749 v -6.90624 h 1.17188 v 6.90624 z m 2.94547,0 v -6.90624 h 1.0625 v 0.98437 q 0.75,-1.14062 2.1875,-1.14062 0.625,0 1.15625,0.21875 0.53125,0.21875 0.78125,0.59375 0.26562,0.35937 0.375,0.85936 0.0625,0.32813 0.0625,1.14063 v 4.25 h -1.17188 v -4.20313 q 0,-0.71875 -0.14062,-1.0625 -0.14063,-0.35936 -0.48438,-0.56249 -0.34375,-0.21875 -0.8125,-0.21875 -0.75,0 -1.29687,0.46875 -0.54688,0.46874 -0.54688,1.79687 v 3.78125 z m 7.19373,0.57812 1.14062,0.15625 q 0.0781,0.53125 0.40625,0.78125 0.4375,0.3125 1.1875,0.3125 0.8125,0 1.25,-0.32812 0.45313,-0.3125 0.60938,-0.90625 0.0937,-0.35938 0.0781,-1.5 -0.76562,0.90625 -1.90625,0.90625 -1.4375,0 -2.21875,-1.03125 -0.78125,-1.03125 -0.78125,-2.46875 0,-0.98438 0.35938,-1.8125 0.35937,-0.84374 1.03125,-1.29687 0.6875,-0.45312 1.60937,-0.45312 1.21875,0 2.01563,0.98437 v -0.82812 h 1.07812 v 5.96874 q 0,1.60937 -0.32812,2.28125 -0.32813,0.6875 -1.04688,1.07812 -0.70312,0.39063 -1.75,0.39063 -1.23437,0 -2,-0.5625 -0.75,-0.5625 -0.73437,-1.67188 z m 0.98437,-4.15625 q 0,1.35938 0.53125,1.98438 0.54688,0.625 1.35938,0.625 0.79687,0 1.34375,-0.625 0.54687,-0.625 0.54687,-1.95313 0,-1.26562 -0.5625,-1.90625 -0.5625,-0.64061 -1.35937,-0.64061 -0.76563,0 -1.3125,0.64061 -0.54688,0.625 -0.54688,1.875 z"
       fill-rule="nonzero"
       id="path19" />
    <path
       fill="#000000"
       fill-opacity="0"
       d="m 254.41692,84.05326 73.54329,-15.244095 10.48819,50.645665 -73.5433,15.2441 z"
       fill-rule="evenodd"
       id="path20" />
    <path
       fill="#000000"
       d="m 268.6754,103.36114 -1.93597,-9.348513 4.14624,-0.859436 q 1.23928,-0.256882 1.93573,-0.129974 0.70858,0.108444 1.22418,0.671775 0.53085,0.560158 0.6893,1.325173 0.20593,0.994529 -0.29407,1.816238 -0.50317,0.806412 -1.81152,1.269097 0.54028,0.143318 0.8479,0.318916 0.6369,0.378609 1.28174,1.026848 l 2.14776,2.203696 -1.54529,0.32031 -1.64169,-1.68627 q -0.72504,-0.727354 -1.16882,-1.09812 -0.4285,-0.373939 -0.7572,-0.497291 -0.31342,-0.126519 -0.60151,-0.130639 -0.22369,-0.0015 -0.69799,0.09681 l -1.43818,0.298111 0.85868,4.146389 z m 0.15881,-5.474299 2.66217,-0.551811 q 0.8415,-0.174423 1.28092,-0.44104 0.43628,-0.281922 0.60187,-0.715172 0.18087,-0.436417 0.0858,-0.895432 -0.13626,-0.657913 -0.71457,-0.98484 -0.56299,-0.330101 -1.60339,-0.114448 l -2.95285,0.612075 z m 13.10627,2.724719 -1.1475,0.23784 -1.51455,-7.313564 q -0.33072,0.483436 -0.92154,1.020782 -0.59079,0.537354 -1.08512,0.847252 l -0.23129,-1.116928 q 0.87201,-0.643501 1.45801,-1.435173 0.58285,-0.806969 0.74997,-1.463936 l 0.74969,-0.155396 z"
       fill-rule="nonzero"
       id="path21" />
    <path
       fill="#000000"
       d="m 271.90472,119.03188 -1.936,-9.34852 3.51895,-0.72941 q 0.93329,-0.19345 1.44189,-0.20314 0.71384,-0.0203 1.23938,0.20587 0.54083,0.22299 0.93662,0.74732 0.4111,0.52116 0.55371,1.20968 0.24713,1.19343 -0.34674,2.17821 -0.57862,0.98162 -2.56757,1.39389 l -2.38678,0.49473 0.7858,3.79449 z m 0.22534,-5.15299 2.40207,-0.4979 q 1.20868,-0.25055 1.62167,-0.79891 0.40986,-0.56367 0.24509,-1.35928 -0.1236,-0.59671 -0.51514,-0.9464 -0.37625,-0.35285 -0.89434,-0.38907 -0.32502,-0.0284 -1.16651,0.14605 l -2.38675,0.49472 z m 8.31107,3.38355 -1.40048,-6.76276 1.04037,-0.21565 0.21228,1.02513 q 0.24887,-0.80157 0.52264,-1.09768 0.28907,-0.29927 0.70218,-0.3849 0.58139,-0.12051 1.25412,0.12302 l -0.17917,1.13817 q -0.47909,-0.156 -0.89218,-0.0704 -0.3825,0.0793 -0.64096,0.37222 -0.24316,0.28976 -0.28317,0.71294 -0.0722,0.65325 0.0768,1.37236 l 0.73511,3.54968 z m 8.54718,-4.03757 1.2066,-0.1065 q -0.0599,1.09752 -0.7045,1.83749 -0.63247,0.72151 -1.81054,0.96571 -1.48407,0.30761 -2.5463,-0.42964 -1.06219,-0.73725 -1.40121,-2.37439 -0.35489,-1.71364 0.32391,-2.82773 0.69095,-1.13256 2.09854,-1.42433 1.36167,-0.28225 2.40857,0.45819 1.04691,0.74042 1.39545,2.42346 0.0222,0.1071 0.0634,0.30601 l -5.04892,1.04654 q 0.29251,1.10424 0.98218,1.58361 0.68649,0.46408 1.52798,0.28965 0.64258,-0.13319 1.01975,-0.54647 0.37396,-0.42858 0.48514,-1.2016 z m -4.1503,-1.0865 3.77905,-0.78332 q -0.25076,-0.82566 -0.69137,-1.18113 -0.69022,-0.55905 -1.56232,-0.37828 -0.79559,0.16491 -1.22019,0.81142 -0.42776,0.6312 -0.30517,1.53131 z m 6.34537,0.79108 1.09414,-0.41829 q 0.2497,0.66632 0.75412,0.94473 0.51657,0.25993 1.29688,0.0982 0.79559,-0.16491 1.11154,-0.5655 0.31595,-0.4006 0.22723,-0.829 -0.0792,-0.38251 -0.47863,-0.53908 -0.2612,-0.10543 -1.24201,-0.14149 -1.33642,-0.0581 -1.87353,-0.1861 -0.525,-0.14649 -0.86747,-0.49039 -0.33035,-0.36237 -0.4349,-0.86728 -0.0919,-0.44371 0.0278,-0.86745 0.13183,-0.44221 0.42987,-0.77525 0.23737,-0.24069 0.66785,-0.47354 0.43048,-0.23284 0.96597,-0.34384 0.79556,-0.16491 1.43979,-0.0591 0.64422,0.10582 1.0173,0.44337 0.3699,0.32225 0.61325,0.95797 l -1.0852,0.38452 q -0.18421,-0.50436 -0.61161,-0.71896 -0.43057,-0.22989 -1.10376,-0.0904 -0.79559,0.16491 -1.07833,0.49478 -0.28272,0.32988 -0.20984,0.68179 0.0475,0.2295 0.22323,0.38457 0.19104,0.15188 0.50708,0.21403 0.18097,0.0263 1.06998,0.0814 1.29053,0.0676 1.80917,0.1835 0.5308,0.0974 0.88858,0.43814 0.35776,0.34073 0.47818,0.92214 0.1204,0.58141 -0.11163,1.1561 -0.23202,0.57468 -0.8176,0.98328 -0.57025,0.40543 -1.36584,0.57034 -1.31577,0.27274 -2.11835,-0.13537 -0.80255,-0.4081 -1.22323,-1.43789 z m 6.52536,-1.35259 1.09414,-0.41828 q 0.2497,0.66632 0.75412,0.94473 0.51657,0.25994 1.29688,0.0982 0.79556,-0.16491 1.11154,-0.5655 0.31595,-0.40059 0.22723,-0.829 -0.0792,-0.38251 -0.47863,-0.53908 -0.2612,-0.10543 -1.24201,-0.14148 -1.33642,-0.0581 -1.87353,-0.18611 -0.525,-0.1465 -0.86747,-0.49039 -0.33035,-0.36237 -0.43493,-0.86728 -0.0919,-0.44371 0.0278,-0.86745 0.13183,-0.44221 0.42984,-0.77525 0.2374,-0.24069 0.66788,-0.47354 0.43045,-0.23284 0.96594,-0.34384 0.79559,-0.16491 1.43982,-0.0591 0.64422,0.10583 1.0173,0.44339 0.3699,0.32225 0.61325,0.95797 l -1.0852,0.3845 q -0.18424,-0.50435 -0.61164,-0.71895 -0.43054,-0.22989 -1.10373,-0.0904 -0.79559,0.16491 -1.07833,0.49479 -0.28272,0.32987 -0.20984,0.68178 0.0475,0.2295 0.22323,0.38457 0.19101,0.15189 0.50708,0.21404 0.18097,0.0263 1.06998,0.0814 1.29053,0.0676 1.80917,0.1835 0.5308,0.0974 0.88855,0.43814 0.35779,0.34073 0.47821,0.92214 0.1204,0.58141 -0.11163,1.1561 -0.23206,0.57467 -0.8176,0.98328 -0.57025,0.40544 -1.36584,0.57035 -1.3158,0.27273 -2.11835,-0.13537 -0.80255,-0.40811 -1.22323,-1.43791 z m 5.75756,-7.44863 -0.27566,-1.33113 1.14749,-0.23785 0.27567,1.33114 z m 1.66031,8.01739 -1.40048,-6.76276 1.14746,-0.23784 1.40051,6.76275 z m 2.88416,-0.59783 -1.40048,-6.76276 1.04037,-0.21564 0.19962,0.96392 q 0.50308,-1.26915 1.91067,-1.56092 0.612,-0.12685 1.17655,-0.0205 0.56454,0.10637 0.88537,0.42284 0.33298,0.298 0.54148,0.76541 0.12774,0.30863 0.29251,1.10424 l 0.86184,4.1617 -1.14749,0.23785 -0.85232,-4.1158 q -0.14576,-0.70382 -0.35318,-1.01188 -0.21057,-0.32337 -0.58835,-0.4525 -0.38095,-0.14443 -0.83994,-0.0493 -0.7344,0.15223 -1.17483,0.72223 -0.44043,0.57001 -0.17111,1.87055 l 0.76678,3.70268 z m 7.16122,-0.89397 1.14859,-0.0785 q 0.18424,0.50436 0.55622,0.68257 0.49176,0.2172 1.22616,0.065 0.79557,-0.1649 1.15744,-0.57501 0.38031,-0.39798 0.41291,-1.0111 0.0189,-0.37094 -0.2277,-1.48469 -0.56588,1.04281 -1.68277,1.27432 -1.40759,0.29176 -2.38171,-0.55949 -0.97409,-0.85125 -1.26559,-2.25889 -0.19965,-0.96392 -0.0157,-1.84778 0.18082,-0.89916 0.7468,-1.47924 0.58132,-0.58325 1.484,-0.77036 1.19339,-0.24737 2.17328,0.55482 l -0.16794,-0.81092 1.0557,-0.21882 1.21039,5.84473 q 0.32635,1.57594 0.14129,2.30046 -0.18185,0.7398 -0.80642,1.2682 -0.60929,0.52522 -1.63437,0.7377 -1.20868,0.25054 -2.07245,-0.14488 -0.84845,-0.39859 -1.05814,-1.48809 z m 0.12107,-4.26968 q 0.27566,1.33113 0.9226,1.83532 0.66224,0.50101 1.45783,0.3361 0.78027,-0.16174 1.18902,-0.88475 0.40876,-0.72301 0.13944,-2.02354 -0.25665,-1.23933 -0.93735,-1.75248 -0.68072,-0.51314 -1.461,-0.35141 -0.74969,0.1554 -1.15527,0.89371 -0.40875,0.72302 -0.15527,1.94705 z"
       fill-rule="nonzero"
       id="path22" />
    <path
       fill="#000000"
       fill-opacity="0"
       d="m 388.62408,159.7571 -176.7559,18.74016"
       fill-rule="evenodd"
       id="path23" />
    <path
       stroke="#000000"
       stroke-width="1"
       stroke-linejoin="round"
       stroke-linecap="butt"
       d="M 388.62408,159.7571 217.83473,177.86467"
       fill-rule="evenodd"
       id="path24" />
    <path
       fill="#000000"
       stroke="#000000"
       stroke-width="1"
       stroke-linecap="butt"
       d="m 217.66058,176.22214 -4.33865,2.12099 4.68695,1.16406 z"
       fill-rule="evenodd"
       id="path25" />
    <path
       fill="#000000"
       fill-opacity="0"
       d="m 258.29266,180.86403 73.5433,-15.24409 10.4567,50.64567 -73.5433,15.2441 z"
       fill-rule="evenodd"
       id="path26" />
    <path
       fill="#000000"
       d="m 272.53842,200.17455 -1.93039,-9.34967 4.14624,-0.85944 q 1.23929,-0.25688 1.93558,-0.12992 0.70843,0.10845 1.22363,0.67187 0.53049,0.56024 0.68845,1.32535 0.20538,0.99464 -0.29505,1.81645 -0.50357,0.80649 -1.81204,1.2692 0.54013,0.14335 0.84763,0.31897 0.63659,0.37867 1.281,1.027 l 2.14624,2.20401 -1.54529,0.32032 -1.64053,-1.68651 q -0.72455,-0.72746 -1.16806,-1.09828 -0.42822,-0.374 -0.75684,-0.49738 -0.31329,-0.12654 -0.60134,-0.13066 -0.22367,-0.002 -0.69797,0.0968 l -1.43817,0.29811 0.8562,4.14691 z m 0.16193,-5.47494 2.66217,-0.55181 q 0.84149,-0.17442 1.28103,-0.44107 0.43637,-0.28194 0.60218,-0.71522 0.18112,-0.43648 0.0863,-0.89554 -0.13586,-0.65801 -0.7139,-0.98499 -0.56277,-0.33015 -1.60315,-0.1145 l -2.95285,0.61208 z m 13.10315,2.72535 -1.1475,0.23786 -1.51019,-7.31447 q -0.33096,0.48347 -0.922,1.02087 -0.59106,0.5374 -1.08548,0.84734 l -0.23062,-1.11707 q 0.87226,-0.64357 1.45865,-1.43532 0.58322,-0.80705 0.7507,-1.46409 l 0.7497,-0.1554 z m 6.87554,-1.42517 -1.39645,-6.76358 1.04038,-0.21565 0.19903,0.96403 q 0.50375,-1.26928 1.91135,-1.56105 0.612,-0.12686 1.17642,-0.0204 0.56442,0.1064 0.88504,0.42291 0.33276,0.29803 0.54095,0.76552 0.12757,0.30865 0.29184,1.10437 l 0.85938,4.16221 -1.14749,0.23786 -0.84989,-4.11631 q -0.14532,-0.7039 -0.35254,-1.012 -0.21035,-0.32341 -0.58804,-0.45258 -0.38083,-0.14445 -0.83981,-0.0493 -0.73438,0.15223 -1.17511,0.72229 -0.44071,0.57006 -0.17215,1.87075 l 0.76459,3.70315 z m 6.13157,-4.79747 q -0.38861,-1.88219 0.48068,-3.00383 0.71728,-0.93059 1.97186,-1.19063 1.39227,-0.2886 2.46924,0.44561 1.07379,0.71888 1.40869,2.34092 0.26852,1.30069 0.0255,2.13297 -0.22766,0.82908 -0.89206,1.39764 -0.66439,0.56856 -1.55175,0.7525 -1.42289,0.29493 -2.49668,-0.42396 -1.06167,-0.73737 -1.41552,-2.45122 z m 1.1781,-0.2442 q 0.26855,1.30069 0.96731,1.82605 0.71411,0.52219 1.57089,0.34459 0.85679,-0.1776 1.2902,-0.93764 0.43023,-0.77533 0.15536,-2.10663 -0.25909,-1.25477 -0.97317,-1.77696 -0.6988,-0.52536 -1.54029,-0.35094 -0.85678,0.1776 -1.30548,0.94081 -0.43338,0.76003 -0.16482,2.06072 z m 9.50421,0.48737 0.3768,0.97506 q -0.46747,0.20859 -0.84995,0.28787 -0.62729,0.13004 -1.02026,0.004 -0.37769,-0.12917 -0.58173,-0.42197 -0.20404,-0.2928 -0.41888,-1.33336 l -0.80249,-3.88676 -0.84149,0.17442 -0.18323,-0.88753 0.84146,-0.17443 -0.34753,-1.68325 1.00531,-0.92645 0.48971,2.37186 1.14749,-0.23786 0.18326,0.88753 -1.14749,0.23785 0.81827,3.96329 q 0.1011,0.48967 0.17544,0.61788 0.0896,0.12503 0.24631,0.1883 0.15347,0.048 0.41357,-0.006 0.19892,-0.0412 0.49543,-0.15055 z"
       fill-rule="nonzero"
       id="path27" />
    <path
       fill="#000000"
       d="m 276.1425,218.48032 -1.93356,-9.36497 1.05569,-0.21882 0.18009,0.87223 q 0.25976,-0.59639 0.66821,-0.93637 0.42056,-0.35845 1.07846,-0.49482 0.85678,-0.17759 1.60629,0.12981 0.76483,0.30422 1.26886,1.04547 0.50406,0.74124 0.70627,1.7206 0.21167,1.02525 0.0183,1.94298 -0.19659,0.90243 -0.82407,1.49525 -0.61215,0.58965 -1.40774,0.75456 -0.5661,0.11734 -1.07562,-0.0324 -0.50956,-0.14969 -0.87607,-0.4567 l 0.68243,3.3053 z m -0.18863,-6.16821 q 0.2717,1.31598 0.92145,1.83555 0.66186,0.50109 1.41156,0.34569 0.76498,-0.15857 1.18307,-0.91542 0.41809,-0.75687 0.13691,-2.11877 -0.26539,-1.28539 -0.93357,-1.81708 -0.67135,-0.547 -1.40576,-0.39478 -0.73437,0.15222 -1.15829,0.95816 -0.42392,0.80594 -0.15537,2.10665 z m 6.89441,2.06552 -1.39645,-6.7636 1.04037,-0.21565 0.2117,1.02525 q 0.2493,-0.80165 0.52319,-1.09779 0.28922,-0.2993 0.70231,-0.38492 0.58139,-0.12051 1.2539,0.12306 l -0.17981,1.13831 q -0.47894,-0.15604 -0.89203,-0.0704 -0.38247,0.0793 -0.64108,0.37225 -0.24332,0.28978 -0.28357,0.71302 -0.0725,0.65332 0.076,1.37252 l 0.733,3.55013 z m 8.54849,-4.03784 1.20651,-0.10648 q -0.0605,1.09764 -0.70547,1.83769 -0.63281,0.72158 -1.81088,0.96578 -1.48407,0.30761 -2.54575,-0.42975 -1.06164,-0.73737 -1.39969,-2.37471 -0.35385,-1.71385 0.3255,-2.82805 0.6915,-1.13269 2.09909,-1.42445 1.36167,-0.28225 2.40802,0.45829 1.04636,0.74054 1.39389,2.42379 0.0221,0.10711 0.0632,0.30604 l -5.04895,1.04654 q 0.29184,1.10439 0.98117,1.58383 0.68612,0.46414 1.52761,0.28972 0.64261,-0.13319 1.01996,-0.54651 0.37418,-0.42862 0.48578,-1.20173 z m -4.1492,-1.08673 3.77905,-0.78331 q -0.25027,-0.82578 -0.69064,-1.18129 -0.68979,-0.55913 -1.56189,-0.37838 -0.79559,0.16492 -1.22049,0.8115 -0.42807,0.63127 -0.30603,1.53148 z m 6.34415,0.79133 1.09427,-0.41832 q 0.2493,0.66641 0.75351,0.94487 0.51635,0.25998 1.29663,0.0982 0.79559,-0.1649 1.11175,-0.56554 0.31613,-0.40063 0.22766,-0.8291 -0.079,-0.38255 -0.47827,-0.53914 -0.26108,-0.10545 -1.24176,-0.14154 -1.33621,-0.0581 -1.8732,-0.18617 -0.52484,-0.14653 -0.86709,-0.49047 -0.33011,-0.36242 -0.43436,-0.8674 -0.0916,-0.44377 0.0283,-0.86755 0.13205,-0.44225 0.43024,-0.77533 0.23748,-0.24071 0.66803,-0.47357 0.43057,-0.23287 0.96606,-0.34386 0.79559,-0.16492 1.43967,-0.0591 0.64407,0.10585 1.0169,0.44347 0.36969,0.3223 0.61264,0.95809 l -1.08526,0.38453 q -0.18393,-0.50442 -0.61115,-0.71905 -0.43039,-0.22992 -1.10357,-0.0904 -0.7956,0.16492 -1.07849,0.49483 -0.28287,0.32991 -0.21021,0.68186 0.0474,0.22953 0.22299,0.38461 0.19092,0.15191 0.5069,0.21408 0.18094,0.0263 1.06979,0.0814 1.29035,0.0676 1.80887,0.18356 0.53067,0.0974 0.88822,0.43822 0.35754,0.34077 0.4776,0.92225 0.12005,0.58148 -0.11228,1.15624 -0.23236,0.57473 -0.81805,0.98338 -0.57044,0.40546 -1.36603,0.57037 -1.31577,0.27274 -2.11801,-0.13543 -0.80222,-0.40818 -1.22229,-1.4381 z m 6.52536,-1.35258 1.09427,-0.41831 q 0.24926,0.6664 0.75351,0.94486 0.51635,0.25998 1.29663,0.0983 0.79559,-0.16492 1.11175,-0.56555 0.31613,-0.40062 0.22766,-0.82909 -0.079,-0.38255 -0.47827,-0.53915 -0.26108,-0.10546 -1.24176,-0.14153 -1.33624,-0.0581 -1.8732,-0.18619 -0.52487,-0.14651 -0.86709,-0.49046 -0.33011,-0.36243 -0.43436,-0.8674 -0.0916,-0.44376 0.0283,-0.86754 0.13205,-0.44226 0.43024,-0.77534 0.23748,-0.24071 0.66803,-0.47358 0.43057,-0.23286 0.96606,-0.34385 0.79556,-0.1649 1.43967,-0.0591 0.64407,0.10585 1.0169,0.44345 0.36969,0.32229 0.61264,0.9581 l -1.08529,0.38452 q -0.1839,-0.50441 -0.61115,-0.71904 -0.43036,-0.22994 -1.10354,-0.0904 -0.7956,0.16491 -1.07849,0.49482 -0.28287,0.32991 -0.21021,0.68185 0.0474,0.22954 0.22299,0.38463 0.19092,0.15192 0.5069,0.21408 0.18091,0.0263 1.06979,0.0814 1.29035,0.0676 1.80887,0.18356 0.53067,0.0974 0.88819,0.43822 0.35754,0.34078 0.4776,0.92227 0.12008,0.58148 -0.11228,1.15622 -0.23233,0.57475 -0.81805,0.98339 -0.57041,0.40547 -1.366,0.57037 -1.3158,0.27273 -2.11801,-0.13544 -0.80222,-0.40817 -1.22229,-1.43809 z m 5.76117,-7.44937 -0.27487,-1.3313 1.14746,-0.23786 0.27487,1.3313 z m 1.65552,8.01837 -1.39646,-6.7636 1.14749,-0.23784 1.39646,6.7636 z m 2.88415,-0.59783 -1.39645,-6.76359 1.04037,-0.21566 0.19907,0.96406 q 0.50375,-1.26931 1.91131,-1.56107 0.612,-0.12685 1.17643,-0.0205 0.56442,0.10642 0.88504,0.42293 0.33276,0.29804 0.54095,0.7655 0.12756,0.30867 0.29184,1.10439 l 0.85938,4.16221 -1.1475,0.23784 -0.84988,-4.1163 q -0.14533,-0.7039 -0.35254,-1.01201 -0.21036,-0.32341 -0.58801,-0.45257 -0.38083,-0.14446 -0.83985,-0.0493 -0.73437,0.15222 -1.17508,0.72229 -0.44073,0.57007 -0.17218,1.87076 l 0.76459,3.70314 z m 7.16089,-0.8939 1.1485,-0.0785 q 0.1839,0.50441 0.55575,0.68265 0.49158,0.21725 1.22599,0.065 0.79559,-0.16491 1.15762,-0.57506 0.38052,-0.39801 0.41345,-1.01121 0.0191,-0.37097 -0.22681,-1.48488 -0.56643,1.04294 -1.68331,1.27445 -1.4076,0.29176 -2.38111,-0.55962 -0.97351,-0.85138 -1.26416,-2.25919 -0.19906,-0.96405 -0.0146,-1.848 0.18131,-0.89927 0.74756,-1.4794 0.58158,-0.5833 1.48426,-0.77042 1.19339,-0.24736 2.17273,0.55495 l -0.16745,-0.81102 1.05566,-0.21883 1.20691,5.84546 q 0.32541,1.57614 0.13998,2.30073 -0.18228,0.73989 -0.8071,1.26833 -0.60949,0.52527 -1.63458,0.73775 -1.20868,0.25053 -2.07211,-0.14495 -0.84812,-0.39866 -1.05716,-1.48829 z m 0.1235,-4.27019 q 0.27488,1.3313 0.92142,1.83556 0.6619,0.50109 1.45746,0.33618 0.7803,-0.16173 1.18942,-0.88483 0.40912,-0.72308 0.14057,-2.02377 -0.25592,-1.23949 -0.93625,-1.7527 -0.68033,-0.51323 -1.4606,-0.35149 -0.7497,0.1554 -1.15567,0.89378 -0.40912,0.72309 -0.15635,1.94727 z"
       fill-rule="nonzero"
       id="path28" />
    <path
       fill="#000000"
       fill-opacity="0"
       d="m 147.87572,178.50792 0.53545,104.37795"
       fill-rule="evenodd"
       id="path29" />
    <path
       stroke="#000000"
       stroke-width="1"
       stroke-linejoin="round"
       stroke-linecap="butt"
       d="m 147.87573,178.50793 0.50465,98.37802"
       fill-rule="evenodd"
       id="path30" />
    <path
       fill="#000000"
       stroke="#000000"
       stroke-width="1"
       stroke-linecap="butt"
       d="m 146.72867,276.89444 1.67499,4.52957 1.62843,-4.54651 z"
       fill-rule="evenodd"
       id="path31" />
    <path
       fill="#cfe2f3"
       d="m 134.61942,313.9685 v 0 c 0,-24.28314 21.10255,-43.96851 47.13386,-43.96851 v 0 c 26.03132,0 47.13387,19.68537 47.13387,43.96851 v 0 c 0,24.28314 -21.10255,43.96851 -47.13387,43.96851 v 0 c -26.03131,0 -47.13386,-19.68537 -47.13386,-43.96851 z"
       fill-rule="evenodd"
       id="path32" />
    <path
       stroke="#000000"
       stroke-width="1"
       stroke-linejoin="round"
       stroke-linecap="butt"
       d="m 134.61942,313.9685 v 0 c 0,-24.28314 21.10255,-43.96851 47.13386,-43.96851 v 0 c 26.03132,0 47.13387,19.68537 47.13387,43.96851 v 0 c 0,24.28314 -21.10255,43.96851 -47.13387,43.96851 v 0 c -26.03131,0 -47.13386,-19.68537 -47.13386,-43.96851 z"
       fill-rule="evenodd"
       id="path33" />
    <path
       fill="#000000"
       d="m 160.94339,313.98975 q 0,-1.89062 1.01562,-2.96875 1.03125,-1.07812 2.64063,-1.07812 1.04687,0 1.89062,0.51562 0.85938,0.5 1.29688,1.40625 0.45312,0.89063 0.45312,2.04688 0,1.15625 -0.46875,2.07812 -0.46875,0.90625 -1.32812,1.375 -0.85938,0.46875 -1.85938,0.46875 -1.07812,0 -1.92187,-0.51562 -0.84375,-0.51563 -1.28125,-1.40625 -0.4375,-0.90625 -0.4375,-1.92188 z m 1.04687,0.0156 q 0,1.375 0.73438,2.17187 0.73437,0.79688 1.85937,0.79688 1.14063,0 1.875,-0.79688 0.73438,-0.8125 0.73438,-2.28125 0,-0.92187 -0.3125,-1.60937 -0.3125,-0.70313 -0.92188,-1.07813 -0.60937,-0.39062 -1.35937,-0.39062 -1.07813,0 -1.84375,0.73437 -0.76563,0.73438 -0.76563,2.45313 z m 11.0544,3.70312 v -0.8125 q -0.65625,0.9375 -1.75,0.9375 -0.5,0 -0.92187,-0.1875 -0.42188,-0.1875 -0.625,-0.46875 -0.20313,-0.28125 -0.29688,-0.70312 -0.0469,-0.26563 -0.0469,-0.875 v -3.42188 h 0.9375 v 3.0625 q 0,0.73438 0.0469,1 0.0937,0.35938 0.375,0.57813 0.29688,0.20312 0.70313,0.20312 0.42187,0 0.79687,-0.20312 0.375,-0.21875 0.51563,-0.59375 0.15625,-0.375 0.15625,-1.07813 v -2.96875 h 0.9375 v 5.53125 z m 4.34838,-0.84375 0.125,0.82813 q -0.39063,0.0937 -0.70313,0.0937 -0.5,0 -0.78125,-0.15625 -0.28125,-0.17188 -0.40625,-0.4375 -0.10937,-0.26563 -0.10937,-1.10938 v -3.17187 h -0.6875 v -0.73438 h 0.6875 v -1.35937 l 0.9375,-0.5625 v 1.92187 h 0.9375 v 0.73438 h -0.9375 v 3.23437 q 0,0.39063 0.0469,0.51563 0.0469,0.10937 0.15625,0.1875 0.10938,0.0625 0.32813,0.0625 0.15625,0 0.40625,-0.0469 z m 4.52314,0.15625 q -0.53125,0.45313 -1.01562,0.64063 -0.46875,0.17187 -1.01563,0.17187 -0.92187,0 -1.40625,-0.4375 -0.48437,-0.45312 -0.48437,-1.14062 0,-0.40625 0.17187,-0.73438 0.1875,-0.34375 0.48438,-0.54687 0.3125,-0.20313 0.6875,-0.3125 0.26562,-0.0625 0.82812,-0.14063 1.125,-0.125 1.67188,-0.3125 0,-0.20312 0,-0.25 0,-0.57812 -0.26563,-0.8125 -0.35937,-0.3125 -1.0625,-0.3125 -0.65625,0 -0.98437,0.23438 -0.3125,0.23437 -0.45313,0.8125 l -0.92187,-0.125 q 0.125,-0.57813 0.40625,-0.9375 0.29687,-0.375 0.82812,-0.5625 0.54688,-0.20313 1.25,-0.20313 0.71875,0 1.15625,0.17188 0.4375,0.17187 0.64063,0.42187 0.21875,0.25 0.29687,0.64063 0.0469,0.23437 0.0469,0.85937 v 1.25 q 0,1.29688 0.0625,1.65625 0.0625,0.34375 0.23437,0.65625 h -0.96875 q -0.15625,-0.29687 -0.1875,-0.6875 z m -0.0781,-2.07812 q -0.51563,0.20312 -1.53125,0.34375 -0.57813,0.0781 -0.82813,0.1875 -0.23437,0.10937 -0.35937,0.3125 -0.125,0.1875 -0.125,0.4375 0,0.375 0.28125,0.625 0.28125,0.25 0.82812,0.25 0.53125,0 0.95313,-0.23438 0.42187,-0.23437 0.625,-0.65625 0.15625,-0.3125 0.15625,-0.9375 z m 2.39525,2.76562 v -7.625 h 0.9375 v 4.34375 l 2.21875,-2.25 h 1.21875 l -2.125,2.0625 2.32812,3.46875 h -1.15625 l -1.8125,-2.82812 -0.67187,0.64062 v 2.1875 z m 5.32812,-6.54687 v -1.07813 h 0.9375 v 1.07813 z m 0,6.54687 v -5.53125 h 0.9375 v 5.53125 z m 2.36748,0 v -5.53125 h 0.84375 v 0.79688 q 0.60937,-0.92188 1.75,-0.92188 0.5,0 0.92187,0.1875 0.42188,0.17188 0.625,0.46875 0.21875,0.29688 0.29688,0.6875 0.0469,0.26563 0.0469,0.92188 v 3.39062 h -0.9375 v -3.35937 q 0,-0.57813 -0.10937,-0.85938 -0.10938,-0.28125 -0.39063,-0.45312 -0.26562,-0.17188 -0.64062,-0.17188 -0.59375,0 -1.03125,0.39063 -0.4375,0.375 -0.4375,1.4375 v 3.01562 z m 5.75462,0.45313 0.90625,0.14062 q 0.0625,0.42188 0.32813,0.60938 0.34375,0.26562 0.9375,0.26562 0.65625,0 1,-0.26562 0.35937,-0.25 0.48437,-0.71875 0.0781,-0.29688 0.0781,-1.20313 -0.625,0.71875 -1.53125,0.71875 -1.14063,0 -1.76563,-0.8125 -0.625,-0.82812 -0.625,-1.98437 0,-0.78125 0.28125,-1.45313 0.29688,-0.67187 0.82813,-1.03125 0.54687,-0.375 1.28125,-0.375 0.98437,0 1.60937,0.79688 v -0.67188 h 0.875 v 4.78125 q 0,1.29688 -0.26562,1.82813 -0.26563,0.54687 -0.84375,0.85937 -0.5625,0.3125 -1.39063,0.3125 -0.98437,0 -1.59375,-0.45312 -0.60937,-0.4375 -0.59375,-1.34375 z m 0.78125,-3.3125 q 0,1.07812 0.42188,1.57812 0.4375,0.5 1.07812,0.5 0.65625,0 1.09375,-0.48437 0.4375,-0.5 0.4375,-1.5625 0,-1.01563 -0.45312,-1.53125 -0.45313,-0.51563 -1.09375,-0.51563 -0.60938,0 -1.04688,0.51563 -0.4375,0.5 -0.4375,1.5 z"
       fill-rule="nonzero"
       id="path34" />
    <path
       fill="#000000"
       fill-opacity="0"
       d="m 63.28609,214.29533 79.08662,-0.0315 v 51.71655 l -79.08662,0.0315 z"
       fill-rule="evenodd"
       id="path35" />
    <path
       fill="#000000"
       d="m 73.33296,236.09132 v -9.54688 l 4.234375,-0.002 q 1.265625,-5.1e-4 1.921875,0.26484 0.671875,0.24974 1.0625,0.90584 0.40625,0.65608 0.40625,1.43733 0,1.01563 -0.65625,1.71901 -0.65625,0.68776 -2.03125,0.87581 0.5,0.2498 0.765625,0.48407 0.546875,0.49979 1.046875,1.26521 l 1.65625,2.5931 -1.578125,6.2e-4 -1.265625,-1.98387 q -0.5625,-0.85914 -0.921875,-1.31213 -0.34375,-0.45299 -0.640625,-0.64037 -0.28125,-0.18739 -0.5625,-0.24978 -0.21875,-0.0468 -0.703125,-0.0466 l -1.46875,5.8e-4 v 4.23438 z m 1.265625,-5.32863 2.71875,-0.001 q 0.859375,-3.4e-4 1.34375,-0.17241 0.484375,-0.1877 0.734375,-0.57842 0.265625,-0.39073 0.265625,-0.85948 0,-0.67187 -0.5,-1.10917 -0.484375,-0.43731 -1.546875,-0.43689 l -3.015625,0.001 z m 14.015778,4.19754 v 1.125 l -6.296875,0.003 q -0.01563,-0.42188 0.140625,-0.81256 0.234375,-0.64072 0.765625,-1.26593 0.53125,-0.62522 1.53125,-1.45374 1.5625,-1.26625 2.109375,-2.01646 0.546875,-0.75021 0.546875,-1.40646 0,-0.70313 -0.5,-1.17168 -0.5,-0.48418 -1.296875,-0.48386 -0.859375,3.4e-4 -1.375,0.51616 -0.5,0.50021 -0.5,1.39084 l -1.203125,-0.1089 q 0.125,-1.35942 0.921875,-2.06287 0.8125,-0.70344 2.171875,-0.70399 1.375,-5.5e-4 2.171875,0.76475 0.8125,0.74968 0.8125,1.87468 0,0.57813 -0.234375,1.14072 -0.234375,0.54698 -0.78125,1.15657 -0.546875,0.60959 -1.8125,1.67259 -1.046875,0.89104 -1.359375,1.2193 -0.296875,0.31261 -0.484375,0.62518 z"
       fill-rule="nonzero"
       id="path36" />
    <path
       fill="#000000"
       d="m 73.31734,252.09134 v -9.54688 l 3.59375,-10e-4 q 0.953125,-3.8e-4 1.453125,0.0932 0.703125,0.12473 1.171875,0.45265 0.484375,0.32794 0.765625,0.92157 0.296875,0.59365 0.296875,1.29677 0,1.21875 -0.78125,2.06281 -0.765625,0.84405 -2.796875,0.84486 l -2.4375,9.8e-4 v 3.875 z m 1.265625,-5.0005 2.453125,-9.8e-4 q 1.234375,-5e-4 1.75,-0.45383 0.515625,-0.46896 0.515625,-1.28146 0,-0.60938 -0.3125,-1.03111 -0.296875,-0.42177 -0.796875,-0.5622 -0.3125,-0.0936 -1.171875,-0.0933 l -2.4375,9.8e-4 z m 7.452255,4.99702 v -6.90625 l 1.0625,-4.3e-4 v 1.04688 q 0.40625,-0.73453 0.734375,-0.96904 0.34375,-0.23451 0.765625,-0.23468 0.59375,-2.3e-4 1.203125,0.37453 l -0.40625,1.07827 q -0.4375,-0.24981 -0.859375,-0.24965 -0.390625,1.6e-4 -0.703125,0.23465 -0.296875,0.2345 -0.421875,0.6408 -0.203125,0.62509 -0.203125,1.35946 v 3.625 z m 9.18837,-2.22241 1.203125,0.14015 q -0.28125,1.06261 -1.0625,1.65668 -0.765625,0.57843 -1.96875,0.5789 -1.515625,6.1e-4 -2.40625,-0.93654 -0.890625,-0.93715 -0.890625,-2.60902 0,-1.75 0.890625,-2.70348 0.90625,-0.96911 2.34375,-0.96968 1.390625,-5.6e-4 2.265625,0.93659 0.875,0.93716 0.875,2.65591 0,0.10938 0,0.3125 l -5.15625,0.002 q 0.0625,1.14061 0.640625,1.74975 0.578125,0.59351 1.4375,0.59317 0.65625,-2.6e-4 1.109375,-0.32857 0.453125,-0.34393 0.71875,-1.07841 z m -3.84375,-1.90471 3.859375,-0.002 q -0.07813,-0.85935 -0.4375,-1.29671 -0.5625,-0.68727 -1.453125,-0.68692 -0.8125,3.2e-4 -1.359375,0.54743 -0.546875,0.53146 -0.609375,1.43774 z m 6.053101,2.06009 1.15625,-0.18797 q 0.109375,0.70309 0.546875,1.07791 0.453125,0.35919 1.25,0.35888 0.8125,-3.3e-4 1.203125,-0.32861 0.390625,-0.32828 0.390625,-0.76578 0,-0.39062 -0.359375,-0.62486 -0.234375,-0.15616 -1.1875,-0.39015 -1.296875,-0.32761 -1.796875,-0.56178 -0.484375,-0.24981 -0.75,-0.65595 -0.25,-0.42178 -0.25,-0.93741 0,-0.45312 0.203125,-0.84382 0.21875,-0.40635 0.578125,-0.67211 0.28125,-0.1876 0.75,-0.32843 0.46875,-0.14081 1.015625,-0.14102 0.8125,-3.2e-4 1.421875,0.23381 0.609375,0.23413 0.90625,0.64026 0.296875,0.3905 0.40625,1.06233 l -1.140625,0.15671 q -0.07813,-0.53122 -0.453125,-0.82794 -0.375,-0.31235 -1.0625,-0.31208 -0.8125,3.3e-4 -1.15625,0.26609 -0.34375,0.26576 -0.34375,0.62514 0,0.23437 0.140625,0.42181 0.15625,0.18744 0.453125,0.31232 0.171875,0.0624 1.03125,0.29647 1.25,0.32763 1.734375,0.54618 0.5,0.20292 0.78125,0.60907 0.28125,0.40614 0.28125,0.99989 0,0.59375 -0.34375,1.10951 -0.34375,0.51576 -1,0.79727 -0.640625,0.2815 -1.453125,0.28183 -1.34375,5.4e-4 -2.046875,-0.56169 -0.703125,-0.56222 -0.90625,-1.65588 z m 6.664059,-0.003 1.15625,-0.18795 q 0.10938,0.70308 0.54688,1.07789 0.45312,0.35919 1.25,0.35889 0.8125,-3.4e-4 1.20312,-0.32861 0.39063,-0.32828 0.39063,-0.76578 0,-0.39063 -0.35938,-0.62486 -0.23437,-0.15615 -1.1875,-0.39016 -1.29687,-0.3276 -1.79687,-0.56178 -0.48438,-0.2498 -0.75,-0.65594 -0.25,-0.42179 -0.25,-0.93741 0,-0.45313 0.20312,-0.84383 0.21875,-0.40634 0.57813,-0.6721 0.28125,-0.18761 0.75,-0.32843 0.46875,-0.14081 1.01562,-0.14102 0.8125,-3.3e-4 1.42188,0.23381 0.60937,0.23413 0.90625,0.64025 0.29687,0.39051 0.40625,1.06235 l -1.14063,0.15669 q -0.0781,-0.53122 -0.45312,-0.82794 -0.375,-0.31234 -1.0625,-0.31207 -0.8125,3.2e-4 -1.15625,0.26608 -0.34375,0.26576 -0.34375,0.62514 0,0.23437 0.14062,0.42181 0.15625,0.18744 0.45313,0.31234 0.17187,0.0624 1.03125,0.29646 1.25,0.32762 1.73437,0.54617 0.5,0.20293 0.78125,0.60907 0.28125,0.40615 0.28125,0.9999 0,0.59375 -0.34375,1.10951 -0.34375,0.51576 -1,0.79727 -0.64062,0.28149 -1.45312,0.28183 -1.34375,5.3e-4 -2.04688,-0.56169 -0.70312,-0.56223 -0.90625,-1.65589 z m 7.14844,-6.12785 v -1.35937 l 1.17188,-4.6e-4 v 1.35937 z m 0,8.1875 v -6.90625 l 1.17188,-4.6e-4 v 6.90625 z m 2.94547,-0.001 v -6.90625 l 1.0625,-4.2e-4 v 0.98438 q 0.75,-1.14093 2.1875,-1.14151 0.625,-2.5e-4 1.15625,0.21829 0.53125,0.21854 0.78125,0.59345 0.26562,0.35926 0.375,0.85922 0.0625,0.32809 0.0625,1.14059 v 4.25 l -1.17188,4.8e-4 v -4.20313 q 0,-0.71875 -0.14062,-1.06244 -0.14063,-0.35933 -0.48438,-0.56232 -0.34375,-0.21861 -0.8125,-0.21841 -0.75,2.9e-4 -1.29687,0.46925 -0.54688,0.46898 -0.54688,1.79711 v 3.78125 z m 7.19372,0.57527 1.14063,0.15579 q 0.0781,0.53122 0.40625,0.78108 0.4375,0.31233 1.1875,0.31203 0.8125,-3.2e-4 1.25,-0.32861 0.45312,-0.31269 0.60937,-0.9065 0.0937,-0.35942 0.0781,-1.50003 -0.76563,0.90656 -1.90625,0.907 -1.4375,5.8e-4 -2.21875,-1.03037 -0.78125,-1.03093 -0.78125,-2.46843 0,-0.98437 0.35937,-1.81265 0.35938,-0.84389 1.03125,-1.29729 0.6875,-0.4534 1.60938,-0.45376 1.21875,-4.9e-4 2.01562,0.98358 v -0.82813 l 1.07813,-4.2e-4 v 5.96875 q 0,1.60937 -0.32813,2.28137 -0.32812,0.68764 -1.04687,1.07854 -0.70313,0.39091 -1.75,0.39132 -1.23438,4.9e-4 -2,-0.5617 -0.75,-0.5622 -0.73438,-1.67157 z m 0.98438,-4.15665 q 0,1.35938 0.53125,1.98416 0.54687,0.62479 1.35937,0.62445 0.79688,-3e-4 1.34375,-0.62553 0.54688,-0.62521 0.54688,-1.95334 0,-1.26562 -0.5625,-1.90602 -0.5625,-0.64041 -1.35938,-0.64009 -0.76562,3e-4 -1.3125,0.64116 -0.54687,0.62521 -0.54687,1.87521 z"
       fill-rule="nonzero"
       id="path37" />
    <path
       fill="#000000"
       fill-opacity="0"
       d="m 455.28143,159.7571 c 0,29.37341 -8.33072,57.1366 -16.66144,58.74683 -8.33069,1.61023 -16.6614,-22.93247 -16.6614,-45.86495"
       fill-rule="evenodd"
       id="path38" />
    <path
       stroke="#000000"
       stroke-width="1"
       stroke-linejoin="round"
       stroke-linecap="butt"
       d="m 455.28143,159.7571 c 0,29.37341 -8.33072,57.1366 -16.66144,58.74683 -8.33069,1.61023 -16.6614,-22.93247 -16.6614,-45.86495"
       fill-rule="evenodd"
       id="path39" />
    <path
       fill="#000000"
       fill-opacity="0"
       d="m 215.08195,282.87808 -3.2126,-104.37796"
       fill-rule="evenodd"
       id="path40" />
    <path
       stroke="#000000"
       stroke-width="1"
       stroke-linejoin="round"
       stroke-linecap="butt"
       d="m 215.08195,282.87808 -3.028,-98.38081"
       fill-rule="evenodd"
       id="path41" />
    <path
       fill="#000000"
       stroke="#000000"
       stroke-width="1"
       stroke-linecap="butt"
       d="m 213.7049,184.44647 -1.79056,-4.48514 -1.51134,4.58676 z"
       fill-rule="evenodd"
       id="path42" />
    <path
       fill="#000000"
       fill-opacity="0"
       d="m 211.88281,118.79916 c 0,-21.751286 -16,-43.510448 -32,-43.502576 -16,0.0079 -32,21.782784 -32,43.565566"
       fill-rule="evenodd"
       id="path43" />
    <path
       stroke="#000000"
       stroke-width="1"
       stroke-linejoin="round"
       stroke-linecap="butt"
       d="m 211.88281,118.79916 c 0,-21.751286 -16,-43.510448 -32,-43.502576 -16,0.0079 -32,21.782784 -32,43.565566"
       fill-rule="evenodd"
       id="path44" />
    <path
       fill="#000000"
       fill-opacity="0"
       d="m 140.33858,23.694681 109.88977,-0.0315 v 51.716537 l -109.88977,0.03149 z"
       fill-rule="evenodd"
       id="path45" />
    <path
       fill="#000000"
       d="m 150.38545,45.491802 v -9.546875 l 4.23437,-0.0012 q 1.26563,-3.62e-4 1.92188,0.265072 0.67187,0.249809 1.0625,0.905945 0.40625,0.656135 0.40625,1.437385 0,1.015625 -0.65625,1.718937 -0.65625,0.687691 -2.03125,0.875584 0.5,0.249855 0.76562,0.484153 0.54688,0.499844 1.04688,1.265328 l 1.65625,2.593273 -1.57813,4.54e-4 -1.26562,-1.984012 q -0.5625,-0.859215 -0.92188,-1.312237 -0.34375,-0.453026 -0.64062,-0.640442 -0.28125,-0.18742 -0.5625,-0.249836 -0.21875,-0.04681 -0.70313,-0.04668 l -1.46875,4.24e-4 v 4.234375 z m 1.26562,-5.328487 2.71875,-7.82e-4 q 0.85938,-2.45e-4 1.34375,-0.172257 0.48438,-0.187641 0.73438,-0.578338 0.26562,-0.390702 0.26562,-0.859452 0,-0.671875 -0.5,-1.10923 -0.48437,-0.437362 -1.54687,-0.437057 l -3.01563,8.66e-4 z m 12.28141,5.324604 -1.17188,3.35e-4 v -7.46875 q -0.42187,0.406372 -1.10937,0.812817 -0.6875,0.406448 -1.23438,0.60973 v -1.140625 q 0.98438,-0.453408 1.71875,-1.109867 0.73438,-0.672085 1.03125,-1.281548 l 0.76563,-2.17e-4 z m 5.39541,-0.0015 3.65625,-9.547924 1.35938,-3.89e-4 3.90625,9.545753 -1.4375,4.12e-4 -1.10938,-2.890305 -3.98437,0.0011 -1.04688,2.890926 z m 2.75,-3.922665 3.23438,-9.27e-4 -1,-2.640339 q -0.45313,-1.202995 -0.67188,-1.968555 -0.1875,0.906303 -0.51562,1.812645 z m 7.17101,3.919819 v -9.546875 l 1.29687,-3.7e-4 5.01563,7.498562 v -7.5 l 1.20312,-3.47e-4 v 9.546879 l -1.29687,3.7e-4 -5.01563,-7.498562 v 7.5 z m 9.64078,-0.0028 v -9.546875 l 3.28125,-9.42e-4 q 1.10937,-3.17e-4 1.70312,0.140137 0.8125,0.187267 1.39063,0.687103 0.76562,0.640404 1.14062,1.640297 0.375,0.984268 0.375,2.249893 0,1.09375 -0.26562,1.937576 -0.25,0.828198 -0.65625,1.390812 -0.39063,0.54699 -0.85938,0.859623 -0.46875,0.312634 -1.14062,0.484703 -0.65625,0.156437 -1.53125,0.156689 z m 1.26562,-1.125362 2.03125,-5.84e-4 q 0.9375,-2.67e-4 1.46875,-0.172295 0.54688,-0.187656 0.875,-0.500251 0.4375,-0.453251 0.6875,-1.203324 0.25,-0.765693 0.25,-1.843818 0,-1.5 -0.5,-2.296734 -0.48437,-0.812359 -1.1875,-1.077786 -0.5,-0.20298 -1.625,-0.202659 l -2,5.76e-4 z m 12.07814,1.121536 v -9.546875 l 4.23438,-0.0012 q 1.26562,-3.62e-4 1.92187,0.265076 0.67188,0.249805 1.0625,0.905944 0.40625,0.656132 0.40625,1.437382 0,1.015625 -0.65625,1.718941 -0.65625,0.687687 -2.03125,0.87558 0.5,0.249859 0.76563,0.484157 0.54687,0.499844 1.04687,1.265324 l 1.65625,2.593277 -1.57812,4.5e-4 -1.26563,-1.984013 q -0.5625,-0.859211 -0.92187,-1.312233 -0.34375,-0.453029 -0.64063,-0.640442 -0.28125,-0.187419 -0.5625,-0.249839 -0.21875,-0.04681 -0.70312,-0.04667 l -1.46875,4.19e-4 V 45.4766 Z m 1.26563,-5.328487 2.71875,-7.79e-4 q 0.85937,-2.48e-4 1.34375,-0.17226 0.48437,-0.187637 0.73437,-0.578335 0.26563,-0.390701 0.26563,-0.859451 0,-0.671875 -0.5,-1.109234 -0.48438,-0.437359 -1.54688,-0.437054 l -3.01562,8.63e-4 z m 14.01578,4.199108 v 1.125 l -6.29688,0.0018 q -0.0156,-0.421871 0.14063,-0.812538 0.23437,-0.640694 0.76562,-1.265846 0.53125,-0.625153 1.53125,-1.453564 1.5625,-1.266071 2.10938,-2.016228 0.54687,-0.750156 0.54687,-1.406406 0,-0.703125 -0.5,-1.171734 -0.5,-0.48423 -1.29687,-0.484001 -0.85938,2.44e-4 -1.375,0.516018 -0.5,0.500141 -0.5,1.390766 l -1.20313,-0.109028 q 0.125,-1.359413 0.92188,-2.062763 0.8125,-0.703362 2.17187,-0.703751 1.375,-3.93e-4 2.17188,0.765003 0.8125,0.749767 0.8125,1.874767 0,0.578125 -0.23438,1.140694 -0.23437,0.54694 -0.78125,1.156471 -0.54687,0.609536 -1.8125,1.672398 -1.04687,0.890923 -1.35937,1.219139 -0.29688,0.312584 -0.48438,0.625137 z m 5.28733,1.123485 v -6.90625 l 1.0625,-3.05e-4 v 0.984375 q 0.75,-1.140839 2.1875,-1.141251 0.625,-1.79e-4 1.15625,0.218419 0.53125,0.218597 0.78125,0.593524 0.26563,0.359299 0.375,0.859269 0.0625,0.328106 0.0625,1.140606 v 4.25 l -1.17187,3.35e-4 V 41.26665 q 0,-0.71875 -0.14063,-1.062458 -0.14062,-0.359337 -0.48437,-0.562362 -0.34375,-0.218651 -0.8125,-0.218518 -0.75,2.18e-4 -1.29688,0.469124 -0.54687,0.468907 -0.54687,1.797032 v 3.78125 z m 6.97498,-3.455124 q 0,-1.921875 1.07812,-2.844059 0.89063,-0.76588 2.17188,-0.766247 1.42187,-4.08e-4 2.32812,0.936833 0.90625,0.921615 0.90625,2.577865 0,1.328125 -0.40625,2.093865 -0.39062,0.765739 -1.15625,1.187832 -0.76562,0.422096 -1.67187,0.422355 -1.45313,4.16e-4 -2.35938,-0.921199 -0.89062,-0.937245 -0.89062,-2.687245 z m 1.20312,-3.47e-4 q 0,1.328125 0.57813,1.984211 0.59375,0.656078 1.46875,0.65583 0.875,-2.51e-4 1.45312,-0.656669 0.57813,-0.672039 0.57813,-2.031414 0,-1.28125 -0.59375,-1.937328 -0.57813,-0.656086 -1.4375,-0.655838 -0.875,2.48e-4 -1.46875,0.656669 -0.57813,0.656414 -0.57813,1.984539 z m 9.20936,2.403614 0.17187,1.0312 q -0.5,0.109517 -0.89062,0.109631 -0.64063,1.83e-4 -1,-0.202839 -0.34375,-0.203029 -0.48438,-0.531113 -0.14062,-0.328083 -0.14062,-1.390583 v -3.96875 l -0.85938,2.45e-4 v -0.90625 l 0.85938,-2.45e-4 v -1.71875 l 1.17187,-0.703464 v 2.421879 l 1.17188,-3.4e-4 v 0.90625 l -1.17188,3.4e-4 v 4.046875 q 0,0.5 0.0469,0.640609 0.0625,0.140606 0.20312,0.234318 0.14063,0.07808 0.40625,0.07801 0.20313,-5.7e-5 0.51563,-0.04702 z"
       fill-rule="nonzero"
       id="path46" />
    <path
       fill="#000000"
       d="m 150.21358,64.1481 v -9.5625 l 1.07812,-3.09e-4 v 0.890625 q 0.375,-0.531357 0.84375,-0.78149 0.48438,-0.265766 1.15625,-0.265957 0.875,-2.52e-4 1.54688,0.452679 0.6875,0.45293 1.03125,1.280956 0.34375,0.828026 0.34375,1.828026 0,1.046875 -0.375,1.906356 -0.375,0.843861 -1.10938,1.297196 -0.71875,0.453331 -1.53125,0.453564 -0.57812,1.64e-4 -1.04687,-0.249703 -0.46875,-0.249863 -0.76563,-0.624779 v 3.375 z m 1.0625,-6.07843 q 0,1.34375 0.53125,1.984222 0.54687,0.624844 1.3125,0.624627 0.78125,-2.26e-4 1.34375,-0.656636 0.5625,-0.656414 0.5625,-2.047039 0,-1.3125 -0.54688,-1.968593 -0.54687,-0.671715 -1.29687,-0.671501 -0.75,2.13e-4 -1.32813,0.703506 -0.57812,0.703289 -0.57812,2.031414 z m 6.33435,3.420059 v -6.90625 l 1.0625,-3.05e-4 v 1.046875 q 0.40625,-0.734489 0.73438,-0.96896 0.34375,-0.234474 0.76562,-0.234592 0.59375,-1.72e-4 1.20313,0.374653 l -0.40625,1.078243 q -0.4375,-0.249874 -0.85938,-0.249756 -0.39062,1.15e-4 -0.70312,0.234577 -0.29688,0.234459 -0.42188,0.640747 -0.20312,0.625058 -0.20312,1.359433 v 3.625 z m 9.18837,-2.221382 1.20313,0.140278 q -0.28125,1.062584 -1.0625,1.656555 -0.76563,0.578346 -1.96875,0.57869 -1.51563,4.35e-4 -2.40625,-0.93681 -0.89063,-0.937244 -0.89063,-2.609119 0,-1.75 0.89063,-2.703381 0.90625,-0.969009 2.34375,-0.969421 1.39062,-4.01e-4 2.26562,0.936851 0.875,0.937249 0.875,2.655999 0,0.109375 0,0.3125 l -5.15625,0.0015 q 0.0625,1.14061 0.64063,1.749817 0.57812,0.593586 1.4375,0.593338 0.65625,-1.87e-4 1.10937,-0.328442 0.45313,-0.34388 0.71875,-1.078331 z m -3.84375,-1.905148 3.85938,-0.0011 q -0.0781,-0.859352 -0.4375,-1.296749 -0.5625,-0.68734 -1.45313,-0.687084 -0.8125,2.33e-4 -1.35937,0.547264 -0.54688,0.531406 -0.60938,1.437675 z m 6.0531,2.060765 1.15625,-0.187832 q 0.10938,0.703094 0.54688,1.077969 0.45312,0.359245 1.25,0.359016 0.8125,-2.33e-4 1.20312,-0.328468 0.39063,-0.32824 0.39063,-0.76574 0,-0.390625 -0.35938,-0.624897 -0.23437,-0.156181 -1.1875,-0.390285 -1.29687,-0.327751 -1.79687,-0.561985 -0.48438,-0.249859 -0.75,-0.656033 -0.25,-0.421802 -0.25,-0.937427 0,-0.453125 0.20312,-0.843811 0.21875,-0.406311 0.57813,-0.672039 0.28125,-0.187581 0.75,-0.328339 0.46875,-0.140762 1.01562,-0.140919 0.8125,-2.32e-4 1.42188,0.233967 0.60937,0.234203 0.90625,0.640366 0.29687,0.390541 0.40625,1.062385 l -1.14063,0.156574 q -0.0781,-0.531227 -0.45312,-0.827991 -0.375,-0.312393 -1.0625,-0.312199 -0.8125,2.33e-4 -1.15625,0.265957 -0.34375,0.265724 -0.34375,0.625099 0,0.234375 0.14062,0.421833 0.15625,0.187459 0.45313,0.312371 0.17187,0.06245 1.03125,0.296581 1.25,0.327766 1.73437,0.546379 0.5,0.20298 0.78125,0.60915 0.28125,0.40617 0.28125,0.99992 0,0.59375 -0.34375,1.109474 -0.34375,0.515724 -1,0.797161 -0.64062,0.281433 -1.45312,0.281666 -1.34375,3.85e-4 -2.04688,-0.561912 -0.70312,-0.562298 -0.90625,-1.655991 z m 6.66406,-0.0019 1.15625,-0.187832 q 0.10938,0.703094 0.54688,1.077968 0.45312,0.359246 1.25,0.359017 0.8125,-2.33e-4 1.20312,-0.328469 0.39063,-0.328235 0.39063,-0.765735 0,-0.390625 -0.35938,-0.624897 -0.23437,-0.156185 -1.1875,-0.390286 -1.29687,-0.327755 -1.79687,-0.561985 -0.48438,-0.249862 -0.75,-0.656036 -0.25,-0.421803 -0.25,-0.937428 0,-0.453125 0.20312,-0.843807 0.21875,-0.406315 0.57813,-0.672043 0.28125,-0.18758 0.75,-0.328338 0.46875,-0.140759 1.01562,-0.140919 0.8125,-2.33e-4 1.42188,0.233971 0.60937,0.234199 0.90625,0.640365 0.29687,0.390538 0.40625,1.062382 l -1.14063,0.156578 q -0.0781,-0.531227 -0.45312,-0.827995 -0.375,-0.312393 -1.0625,-0.312195 -0.8125,2.33e-4 -1.15625,0.265957 -0.34375,0.26572 -0.34375,0.625095 0,0.234375 0.14062,0.421837 0.15625,0.187454 0.45313,0.31237 0.17187,0.06245 1.03125,0.296578 1.25,0.327766 1.73437,0.546379 0.5,0.20298 0.78125,0.60915 0.28125,0.40617 0.28125,0.99992 0,0.59375 -0.34375,1.109474 -0.34375,0.515724 -1,0.797161 -0.64062,0.281433 -1.45312,0.281666 -1.34375,3.85e-4 -2.04688,-0.561913 -0.70312,-0.562298 -0.90625,-1.65599 z m 7.14844,-6.127049 V 51.93564 l 1.17188,-3.36e-4 v 1.359375 z m 0,8.1875 v -6.90625 l 1.17188,-3.36e-4 v 6.90625 z m 2.94547,-8.43e-4 v -6.90625 l 1.0625,-3.05e-4 v 0.984375 q 0.75,-1.140839 2.1875,-1.141251 0.625,-1.79e-4 1.15625,0.218418 0.53125,0.218598 0.78125,0.593525 0.26562,0.359299 0.375,0.859269 0.0625,0.328105 0.0625,1.140605 v 4.25 l -1.17188,3.36e-4 v -4.203125 q 0,-0.71875 -0.14062,-1.062458 -0.14063,-0.359337 -0.48438,-0.562363 -0.34375,-0.21865 -0.8125,-0.218517 -0.75,2.14e-4 -1.29687,0.469124 -0.54688,0.468906 -0.54688,1.797031 v 3.78125 z m 7.19372,0.576061 1.14063,0.155926 q 0.0781,0.531227 0.40625,0.781132 0.4375,0.312374 1.1875,0.31216 0.8125,-2.32e-4 1.25,-0.328483 0.45312,-0.31263 0.60937,-0.906426 0.0937,-0.359401 0.0781,-1.500023 -0.76563,0.906472 -1.90625,0.906796 -1.4375,4.16e-4 -2.21875,-1.030613 -0.78125,-1.031025 -0.78125,-2.468525 0,-0.984375 0.35937,-1.812603 0.35938,-0.843853 1.03125,-1.297173 0.6875,-0.453319 1.60938,-0.453586 1.21875,-3.47e-4 2.01562,0.983799 v -0.828125 l 1.07813,-3.09e-4 v 5.96875 q 0,1.609375 -0.32813,2.281345 -0.32812,0.687592 -1.04687,1.078423 -0.70313,0.390827 -1.75,0.391124 -1.23438,3.59e-4 -2,-0.561924 -0.75,-0.562286 -0.73438,-1.671665 z m 0.98438,-4.156532 q 0,1.359375 0.53125,1.984222 0.54687,0.624844 1.35937,0.624611 0.79688,-2.29e-4 1.34375,-0.625385 0.54688,-0.625156 0.54688,-1.953281 0,-1.265625 -0.5625,-1.90609 -0.5625,-0.640461 -1.35938,-0.640232 -0.76562,2.17e-4 -1.3125,0.640999 -0.54687,0.625156 -0.54687,1.875156 z"
       fill-rule="nonzero"
       id="path47" />
    <path
       fill="#000000"
       fill-opacity="0"
       d="m 215.08195,345.05893 c 0,18.93903 -16.66142,37.87021 -33.32285,37.87808 -16.6614,0.008 -33.32283,-18.90753 -33.32283,-37.81509"
       fill-rule="evenodd"
       id="path48" />
    <path
       stroke="#000000"
       stroke-width="1"
       stroke-linejoin="round"
       stroke-linecap="butt"
       d="m 215.08195,345.05893 c 0,18.93903 -16.66142,37.87021 -33.32285,37.87808 -16.6614,0.008 -33.32283,-18.90753 -33.32283,-37.81509"
       fill-rule="evenodd"
       id="path49" />
    <path
       fill="#000000"
       fill-opacity="0"
       d="m 140.33595,392.4712 79.08662,-0.0315 v 51.71652 l -79.08662,0.0315 z"
       fill-rule="evenodd"
       id="path50" />
    <path
       fill="#000000"
       d="m 150.38283,414.26718 v -9.54688 l 4.23438,-0.002 q 1.26562,-5.2e-4 1.92187,0.26486 0.67188,0.24972 1.0625,0.90582 0.40625,0.65607 0.40625,1.43732 0,1.01562 -0.65625,1.71902 -0.65625,0.68778 -2.03125,0.8758 0.5,0.24981 0.76563,0.48407 0.54687,0.49978 1.04687,1.26522 l 1.65625,2.59308 -1.57812,6.4e-4 -1.26563,-1.98388 q -0.5625,-0.85913 -0.92187,-1.31214 -0.34375,-0.45297 -0.64063,-0.64035 -0.28125,-0.18741 -0.5625,-0.24978 -0.21875,-0.0468 -0.70312,-0.0466 l -1.46875,5.8e-4 v 4.23437 z m 1.26563,-5.32864 2.71875,-10e-4 q 0.85937,-3.4e-4 1.34375,-0.17243 0.48437,-0.18768 0.73437,-0.5784 0.26563,-0.39074 0.26563,-0.85949 0,-0.67188 -0.5,-1.10916 -0.48438,-0.43732 -1.54688,-0.43689 l -3.01562,0.001 z m 14.01577,4.19757 v 1.125 l -6.29687,0.003 q -0.0156,-0.42188 0.14062,-0.81256 0.23438,-0.64072 0.76563,-1.26593 0.53125,-0.62522 1.53125,-1.45374 1.5625,-1.26626 2.10937,-2.01648 0.54688,-0.75021 0.54688,-1.40646 0,-0.70313 -0.5,-1.17166 -0.5,-0.48419 -1.29688,-0.48386 -0.85937,3.4e-4 -1.375,0.51618 -0.5,0.50018 -0.5,1.3908 l -1.20312,-0.10888 q 0.125,-1.35944 0.92187,-2.06287 0.8125,-0.70346 2.17188,-0.70401 1.375,-5.5e-4 2.17187,0.76477 0.8125,0.74967 0.8125,1.87467 0,0.57812 -0.23437,1.14074 -0.23438,0.54697 -0.78125,1.15656 -0.54688,0.60959 -1.8125,1.67258 -1.04688,0.89105 -1.35938,1.21929 -0.29687,0.31263 -0.48437,0.62519 z"
       fill-rule="nonzero"
       id="path51" />
    <path
       fill="#000000"
       d="m 150.3672,430.26718 v -9.54688 l 3.59375,-0.001 q 0.95312,-3.7e-4 1.45312,0.0932 0.70313,0.12473 1.17188,0.45267 0.48437,0.32794 0.76562,0.92157 0.29688,0.59363 0.29688,1.29675 0,1.21875 -0.78125,2.06281 -0.76563,0.84405 -2.79688,0.84488 l -2.4375,9.7e-4 v 3.875 z m 1.26562,-5.00049 2.45313,-9.7e-4 q 1.23437,-4.9e-4 1.75,-0.45383 0.51562,-0.46897 0.51562,-1.28147 0,-0.60937 -0.3125,-1.03112 -0.29687,-0.42176 -0.79687,-0.56217 -0.3125,-0.0936 -1.17188,-0.0933 l -2.4375,9.8e-4 z m 7.45226,4.99701 v -6.90625 l 1.0625,-4e-4 v 1.04688 q 0.40625,-0.73456 0.73438,-0.96906 0.34375,-0.23452 0.76562,-0.23468 0.59375,-2.4e-4 1.20313,0.37452 l -0.40625,1.0783 q -0.4375,-0.24984 -0.85938,-0.24966 -0.39062,1.5e-4 -0.70312,0.23465 -0.29688,0.2345 -0.42188,0.64078 -0.20312,0.62509 -0.20312,1.35946 v 3.625 z m 9.18837,-2.22241 1.20313,0.14017 q -0.28125,1.06259 -1.0625,1.65667 -0.76563,0.57843 -1.96875,0.57889 -1.51563,6.1e-4 -2.40625,-0.93652 -0.89063,-0.93717 -0.89063,-2.60904 0,-1.75 0.89063,-2.70346 0.90625,-0.96912 2.34375,-0.9697 1.39062,-5.5e-4 2.26562,0.93662 0.875,0.93713 0.875,2.65588 0,0.10938 0,0.3125 l -5.15625,0.002 q 0.0625,1.14062 0.64063,1.74975 0.57812,0.59354 1.4375,0.59317 0.65625,-2.4e-4 1.10937,-0.32855 0.45313,-0.34393 0.71875,-1.07843 z m -3.84375,-1.90469 3.85938,-0.002 q -0.0781,-0.85935 -0.4375,-1.29669 -0.5625,-0.68729 -1.45313,-0.68692 -0.8125,3.3e-4 -1.35937,0.54742 -0.54688,0.53146 -0.60938,1.43775 z m 6.0531,2.06008 1.15625,-0.18795 q 0.10938,0.70306 0.54688,1.07788 0.45312,0.35922 1.25,0.35888 0.8125,-3e-4 1.20312,-0.32861 0.39063,-0.32828 0.39063,-0.76578 0,-0.39062 -0.35938,-0.62484 -0.23437,-0.15616 -1.1875,-0.39014 -1.29687,-0.32764 -1.79687,-0.5618 -0.48438,-0.24982 -0.75,-0.65594 -0.25,-0.42179 -0.25,-0.93741 0,-0.45313 0.20312,-0.84384 0.21875,-0.40631 0.57813,-0.67209 0.28125,-0.18762 0.75,-0.32843 0.46875,-0.14081 1.01562,-0.14102 0.8125,-3.4e-4 1.42188,0.23379 0.60937,0.23413 0.90625,0.64026 0.29687,0.39053 0.40625,1.06235 l -1.14063,0.1567 q -0.0781,-0.53121 -0.45312,-0.82794 -0.375,-0.31234 -1.0625,-0.31207 -0.8125,3.1e-4 -1.15625,0.26608 -0.34375,0.26575 -0.34375,0.62513 0,0.23437 0.14062,0.42181 0.15625,0.18744 0.45313,0.31235 0.17187,0.0624 1.03125,0.29644 1.25,0.32764 1.73437,0.54618 0.5,0.20294 0.78125,0.60907 0.28125,0.40616 0.28125,0.99991 0,0.59375 -0.34375,1.10949 -0.34375,0.51578 -1,0.79727 -0.64062,0.28153 -1.45312,0.28183 -1.34375,5.5e-4 -2.04688,-0.56167 -0.70312,-0.56223 -0.90625,-1.65589 z m 6.66406,-0.003 1.15625,-0.18796 q 0.10938,0.70307 0.54688,1.07788 0.45312,0.35922 1.25,0.35889 0.8125,-3.1e-4 1.20312,-0.32861 0.39063,-0.32828 0.39063,-0.76578 0,-0.39063 -0.35938,-0.62485 -0.23437,-0.15616 -1.1875,-0.39014 -1.29687,-0.32763 -1.79687,-0.56179 -0.48438,-0.24982 -0.75,-0.65595 -0.25,-0.42178 -0.25,-0.93741 0,-0.45312 0.20312,-0.84384 0.21875,-0.40631 0.57813,-0.67209 0.28125,-0.18762 0.75,-0.32843 0.46875,-0.14081 1.01562,-0.14102 0.8125,-3.3e-4 1.42188,0.2338 0.60937,0.23413 0.90625,0.64025 0.29687,0.39054 0.40625,1.06235 l -1.14063,0.15671 q -0.0781,-0.53122 -0.45312,-0.82794 -0.375,-0.31235 -1.0625,-0.31207 -0.8125,3e-4 -1.15625,0.26608 -0.34375,0.26575 -0.34375,0.62512 0,0.23438 0.14062,0.42184 0.15625,0.18741 0.45313,0.31232 0.17187,0.0624 1.03125,0.29645 1.25,0.32764 1.73437,0.5462 0.5,0.20291 0.78125,0.60904 0.28125,0.40616 0.28125,0.99991 0,0.59375 -0.34375,1.1095 -0.34375,0.51578 -1,0.79727 -0.64062,0.28152 -1.45312,0.28183 -1.34375,5.5e-4 -2.04688,-0.56168 -0.70312,-0.56222 -0.90625,-1.65588 z m 7.14844,-6.12787 v -1.35937 l 1.17188,-4.6e-4 v 1.35937 z m 0,8.1875 v -6.90625 l 1.17188,-4.6e-4 v 6.90625 z m 2.94547,-10e-4 v -6.90625 l 1.0625,-4.3e-4 v 0.98438 q 0.75,-1.14093 2.1875,-1.14148 0.625,-2.8e-4 1.15625,0.21826 0.53125,0.21857 0.78125,0.59345 0.26562,0.35928 0.375,0.85922 0.0625,0.32812 0.0625,1.14062 v 4.25 l -1.17188,4.6e-4 v -4.20312 q 0,-0.71875 -0.14062,-1.06244 -0.14063,-0.35932 -0.48438,-0.56232 -0.34375,-0.2186 -0.8125,-0.21841 -0.75,2.7e-4 -1.29687,0.46926 -0.54688,0.46897 -0.54688,1.79709 v 3.78125 z m 7.19372,0.57526 1.14063,0.15579 q 0.0781,0.53122 0.40625,0.7811 0.4375,0.31231 1.1875,0.31201 0.8125,-3.1e-4 1.25,-0.32861 0.45312,-0.31269 0.60937,-0.9065 0.0937,-0.3594 0.0781,-1.50003 -0.76563,0.90656 -1.90625,0.90701 -1.4375,5.8e-4 -2.21875,-1.03036 -0.78125,-1.03095 -0.78125,-2.46845 0,-0.98437 0.35937,-1.81265 0.35938,-0.84387 1.03125,-1.29727 0.6875,-0.4534 1.60938,-0.45377 1.21875,-4.8e-4 2.01562,0.98359 v -0.82813 l 1.07813,-4.3e-4 v 5.96875 q 0,1.60938 -0.32813,2.28138 -0.32812,0.68762 -1.04687,1.07855 -0.70313,0.3909 -1.75,0.39129 -1.23438,5.2e-4 -2,-0.56167 -0.75,-0.56223 -0.73438,-1.6716 z m 0.98438,-4.15665 q 0,1.35938 0.53125,1.98416 0.54687,0.62479 1.35937,0.62448 0.79688,-3.3e-4 1.34375,-0.62555 0.54688,-0.62521 0.54688,-1.95333 0,-1.26563 -0.5625,-1.90604 -0.5625,-0.64038 -1.35938,-0.64008 -0.76562,3.1e-4 -1.3125,0.64115 -0.54687,0.62521 -0.54687,1.87521 z"
       fill-rule="nonzero"
       id="path52" />
    <path
       fill="#000000"
       fill-opacity="0"
       d="m 421.95758,224.02438 73.54334,-15.24409 10.48818,50.64567 -73.54333,15.24408 z"
       fill-rule="evenodd"
       id="path53" />
    <path
       fill="#000000"
       d="m 436.2161,243.33228 -1.93597,-9.34853 4.14624,-0.85943 q 1.23928,-0.25688 1.93573,-0.12996 0.70858,0.10843 1.22418,0.67177 0.53085,0.56015 0.6893,1.32518 0.20593,0.99452 -0.29407,1.81622 -0.50317,0.80641 -1.81152,1.2691 0.54028,0.14333 0.8479,0.31891 0.6369,0.37862 1.28174,1.02686 l 2.14776,2.20369 -1.54529,0.32031 -1.64169,-1.68626 q -0.72504,-0.72736 -1.16882,-1.09813 -0.4285,-0.37393 -0.7572,-0.49729 -0.31342,-0.12652 -0.60151,-0.13064 -0.22369,-10e-4 -0.69799,0.0968 l -1.43818,0.29812 0.85868,4.14639 z m 0.15881,-5.4743 2.66217,-0.55182 q 0.8415,-0.17443 1.28092,-0.44104 0.43628,-0.28191 0.60187,-0.71517 0.18087,-0.43641 0.0858,-0.89543 -0.13623,-0.65791 -0.71457,-0.98485 -0.56299,-0.33009 -1.60339,-0.11444 l -2.95285,0.61208 z m 13.10627,2.72471 -1.1475,0.23786 -1.51455,-7.31359 q -0.33072,0.48345 -0.92154,1.02079 -0.59079,0.53735 -1.08512,0.84725 l -0.23129,-1.11692 q 0.87201,-0.64351 1.45801,-1.43518 0.58285,-0.80697 0.74997,-1.46393 l 0.74969,-0.1554 z"
       fill-rule="nonzero"
       id="path54" />
    <path
       fill="#000000"
       d="m 439.4454,259.00302 -1.936,-9.34853 3.51895,-0.72941 q 0.93329,-0.19345 1.44189,-0.20313 0.71384,-0.0203 1.23938,0.20586 0.54083,0.22299 0.93665,0.74733 0.41107,0.52115 0.55368,1.20967 0.24713,1.19342 -0.34674,2.17821 -0.57859,0.98161 -2.56757,1.39389 l -2.38678,0.49473 0.7858,3.79448 z m 0.22534,-5.153 2.40207,-0.49791 q 1.20868,-0.25053 1.62167,-0.7989 0.40986,-0.56366 0.24509,-1.35929 -0.1236,-0.59671 -0.51514,-0.94639 -0.37625,-0.35285 -0.89434,-0.38907 -0.32502,-0.0284 -1.16651,0.14604 l -2.38675,0.49474 z m 8.31107,3.38356 -1.40048,-6.76277 1.04037,-0.21564 0.21228,1.02512 q 0.2489,-0.80158 0.52264,-1.09767 0.28907,-0.29927 0.70218,-0.38491 0.58139,-0.12051 1.25412,0.12302 l -0.17917,1.13818 q -0.47909,-0.15602 -0.89218,-0.0704 -0.3825,0.0793 -0.64096,0.37223 -0.24316,0.28975 -0.28317,0.71293 -0.0722,0.65325 0.0768,1.37236 l 0.73511,3.54969 z m 8.54718,-4.03758 1.2066,-0.10649 q -0.0599,1.0975 -0.7045,1.83749 -0.63247,0.7215 -1.81054,0.9657 -1.48407,0.30762 -2.54627,-0.42964 -1.06222,-0.73725 -1.40124,-2.37439 -0.35489,-1.71364 0.32391,-2.82773 0.69095,-1.13255 2.09854,-1.42432 1.36167,-0.28225 2.40857,0.45818 1.04691,0.74042 1.39545,2.42346 0.0222,0.1071 0.0634,0.306 l -5.04892,1.04655 q 0.29251,1.10424 0.98218,1.58361 0.68649,0.46408 1.52798,0.28966 0.64258,-0.1332 1.01975,-0.54648 0.37396,-0.42858 0.48514,-1.2016 z m -4.1503,-1.0865 3.77905,-0.78331 q -0.25076,-0.82567 -0.69137,-1.18114 -0.69022,-0.55905 -1.56232,-0.37828 -0.79556,0.16492 -1.22019,0.81141 -0.42773,0.63121 -0.30517,1.53132 z m 6.34537,0.79107 1.09414,-0.41827 q 0.2497,0.6663 0.75412,0.94472 0.51657,0.25994 1.29688,0.0982 0.79559,-0.16492 1.11154,-0.5655 0.31595,-0.40059 0.22723,-0.829 -0.0792,-0.38251 -0.47863,-0.53908 -0.26117,-0.10544 -1.24201,-0.14148 -1.33642,-0.0581 -1.87353,-0.18611 -0.525,-0.1465 -0.86747,-0.49039 -0.33035,-0.36238 -0.4349,-0.86727 -0.0919,-0.44371 0.0278,-0.86745 0.1318,-0.44222 0.42984,-0.77527 0.23737,-0.24068 0.66785,-0.47353 0.43048,-0.23284 0.96597,-0.34384 0.79556,-0.1649 1.43979,-0.0591 0.64422,0.10582 1.0173,0.44338 0.36991,0.32225 0.61325,0.95796 l -1.0852,0.38452 q -0.18421,-0.50436 -0.61161,-0.71895 -0.43057,-0.2299 -1.10376,-0.0904 -0.79559,0.16492 -1.07833,0.49478 -0.28272,0.32988 -0.20984,0.68179 0.0475,0.22951 0.22323,0.38457 0.19104,0.15189 0.50708,0.21404 0.18097,0.0263 1.06998,0.0814 1.29053,0.0676 1.80917,0.1835 0.5308,0.0974 0.88858,0.43814 0.35776,0.34073 0.47818,0.92215 0.1204,0.5814 -0.11163,1.15608 -0.23202,0.57469 -0.8176,0.98329 -0.57025,0.40543 -1.36584,0.57035 -1.31577,0.27273 -2.11835,-0.13538 -0.80255,-0.4081 -1.22323,-1.4379 z m 6.52536,-1.35257 1.09414,-0.41829 q 0.2497,0.66632 0.75412,0.94474 0.51657,0.25993 1.29688,0.0982 0.79559,-0.16491 1.11154,-0.56549 0.31595,-0.40061 0.22723,-0.82901 -0.0792,-0.38251 -0.47863,-0.53908 -0.2612,-0.10542 -1.24201,-0.14148 -1.33642,-0.0581 -1.87353,-0.18611 -0.525,-0.14649 -0.86747,-0.49039 -0.33035,-0.36237 -0.4349,-0.86728 -0.0919,-0.44371 0.0278,-0.86745 0.13183,-0.44221 0.42987,-0.77525 0.23737,-0.24069 0.66785,-0.47354 0.43045,-0.23283 0.96594,-0.34384 0.79559,-0.1649 1.43982,-0.0591 0.64422,0.10582 1.0173,0.44337 0.3699,0.32225 0.61325,0.95798 l -1.0852,0.3845 q -0.18424,-0.50434 -0.61164,-0.71894 -0.43054,-0.22989 -1.10373,-0.0904 -0.79559,0.16492 -1.07833,0.4948 -0.28272,0.32986 -0.20984,0.68178 0.0475,0.22951 0.22323,0.38457 0.19104,0.15188 0.50708,0.21403 0.18097,0.0263 1.06998,0.0814 1.29053,0.0676 1.80917,0.18348 0.5308,0.0974 0.88855,0.43816 0.35779,0.34071 0.47821,0.92213 0.1204,0.58141 -0.11163,1.1561 -0.23206,0.57468 -0.8176,0.98328 -0.57025,0.40544 -1.36584,0.57034 -1.3158,0.27274 -2.11835,-0.13536 -0.80255,-0.40811 -1.22323,-1.4379 z m 5.75756,-7.44864 -0.27566,-1.33113 1.14749,-0.23785 0.27567,1.33113 z m 1.66031,8.0174 -1.40048,-6.76277 1.14749,-0.23784 1.40048,6.76275 z m 2.88416,-0.59784 -1.40048,-6.76276 1.04037,-0.21565 0.19962,0.96393 q 0.50308,-1.26915 1.91067,-1.56091 0.612,-0.12687 1.17655,-0.0205 0.56454,0.10638 0.8854,0.42285 0.33295,0.29799 0.54145,0.7654 0.12774,0.30862 0.29251,1.10424 l 0.86184,4.1617 -1.14749,0.23786 -0.85232,-4.1158 q -0.14576,-0.70383 -0.35318,-1.01189 -0.21057,-0.32336 -0.58835,-0.4525 -0.38095,-0.14444 -0.83994,-0.0493 -0.7344,0.15224 -1.17483,0.72224 -0.44043,0.57001 -0.17111,1.87053 l 0.76678,3.70269 z m 7.16125,-0.89397 1.14856,-0.0785 q 0.18424,0.50436 0.55622,0.68257 0.49176,0.21721 1.22616,0.065 0.7956,-0.1649 1.15744,-0.57501 0.38031,-0.39797 0.41291,-1.0111 0.0189,-0.37094 -0.22767,-1.48469 -0.56591,1.04282 -1.6828,1.27432 -1.40759,0.29176 -2.38171,-0.55949 -0.97409,-0.85126 -1.26559,-2.25888 -0.19965,-0.96393 -0.0157,-1.8478 0.18079,-0.89915 0.7468,-1.47923 0.58129,-0.58325 1.48397,-0.77035 1.19339,-0.24738 2.17328,0.5548 l -0.16794,-0.81091 1.0557,-0.21882 1.21039,5.84474 q 0.32635,1.57593 0.14132,2.30044 -0.18188,0.73983 -0.80645,1.26821 -0.60929,0.52522 -1.63437,0.7377 -1.20868,0.25053 -2.07245,-0.14488 -0.84845,-0.39859 -1.05811,-1.48809 z m 0.12104,-4.26968 q 0.27566,1.33113 0.9226,1.83531 0.66224,0.50102 1.45783,0.33611 0.78027,-0.16173 1.18902,-0.88475 0.40876,-0.72301 0.13944,-2.02355 -0.25665,-1.23932 -0.93735,-1.75247 -0.68072,-0.51314 -1.461,-0.35141 -0.74969,0.15539 -1.15527,0.89371 -0.40875,0.72302 -0.15527,1.94705 z"
       fill-rule="nonzero"
       id="path55" />
    <path
       fill="#000000"
       fill-opacity="0"
       d="m 219.42258,231.53941 79.08661,-0.0315 v 51.71653 l -79.08661,0.0315 z"
       fill-rule="evenodd"
       id="path56" />
    <path
       fill="#000000"
       d="m 229.46945,253.33542 v -9.54688 l 4.23437,-0.002 q 1.26563,-5.1e-4 1.92188,0.26484 0.67187,0.24974 1.0625,0.90584 0.40625,0.65608 0.40625,1.43733 0,1.01563 -0.65625,1.71901 -0.65625,0.68776 -2.03125,0.87581 0.5,0.2498 0.76562,0.48407 0.54688,0.49979 1.04688,1.26521 l 1.65625,2.5931 -1.57813,6.2e-4 -1.26562,-1.98387 q -0.5625,-0.85914 -0.92188,-1.31213 -0.34375,-0.45299 -0.64062,-0.64037 -0.28125,-0.18739 -0.5625,-0.24978 -0.21875,-0.0468 -0.70313,-0.0466 l -1.46875,5.8e-4 v 4.23438 z m 1.26562,-5.32863 2.71875,-0.001 q 0.85938,-3.4e-4 1.34375,-0.17241 0.48438,-0.1877 0.73438,-0.57842 0.26562,-0.39073 0.26562,-0.85948 0,-0.67187 -0.5,-1.10917 -0.48437,-0.43731 -1.54687,-0.43689 l -3.01563,0.001 z m 14.01578,4.19754 v 1.125 l -6.29687,0.003 q -0.0156,-0.42188 0.14062,-0.81256 0.23438,-0.64072 0.76563,-1.26593 0.53125,-0.62522 1.53125,-1.45374 1.5625,-1.26625 2.10937,-2.01646 0.54688,-0.75021 0.54688,-1.40646 0,-0.70313 -0.5,-1.17168 -0.5,-0.48418 -1.29688,-0.48386 -0.85937,3.4e-4 -1.375,0.51616 -0.5,0.5002 -0.5,1.39084 l -1.20312,-0.1089 q 0.125,-1.35942 0.92187,-2.06287 0.8125,-0.70344 2.17188,-0.70399 1.375,-5.5e-4 2.17187,0.76475 0.8125,0.74968 0.8125,1.87468 0,0.57813 -0.23437,1.14072 -0.23438,0.54698 -0.78125,1.15657 -0.54688,0.60959 -1.8125,1.67259 -1.04688,0.89104 -1.35938,1.2193 -0.29687,0.31261 -0.48437,0.62518 z m 5.28734,1.1229 v -6.90625 l 1.0625,-4.2e-4 v 0.98438 q 0.75,-1.14093 2.1875,-1.14151 0.625,-2.5e-4 1.15625,0.21829 0.53125,0.21854 0.78125,0.59345 0.26563,0.35926 0.375,0.85922 0.0625,0.32809 0.0625,1.14059 v 4.25 l -1.17187,4.8e-4 v -4.20313 q 0,-0.71875 -0.14063,-1.06244 -0.14062,-0.35933 -0.48437,-0.56231 -0.34375,-0.21862 -0.8125,-0.21842 -0.75,2.9e-4 -1.29688,0.46925 -0.54687,0.46898 -0.54687,1.79711 v 3.78125 z m 6.97496,-3.45591 q 0,-1.92187 1.07813,-2.84417 0.89062,-0.76598 2.17187,-0.7665 1.42188,-5.6e-4 2.32813,0.93659 0.90625,0.92151 0.90625,2.57776 0,1.32812 -0.40625,2.09391 -0.39063,0.76578 -1.15625,1.18796 -0.76563,0.42218 -1.67188,0.42253 -1.45312,5.8e-4 -2.35937,-0.92093 -0.89063,-0.93715 -0.89063,-2.68715 z m 1.20313,-4.7e-4 q 0,1.32813 0.57812,1.98415 0.59375,0.656 1.46875,0.65565 0.875,-3.3e-4 1.45313,-0.65681 0.57812,-0.67212 0.57812,-2.0315 0,-1.28125 -0.59375,-1.93725 -0.57812,-0.65602 -1.4375,-0.65569 -0.875,3.5e-4 -1.46875,0.65685 -0.57812,0.65648 -0.57812,1.9846 z m 9.20935,2.40257 0.17187,1.03119 q -0.5,0.10958 -0.89062,0.10973 -0.64063,2.6e-4 -1,-0.20273 -0.34375,-0.20299 -0.48438,-0.53105 -0.14062,-0.32807 -0.14062,-1.39057 v -3.96875 l -0.85938,3.4e-4 v -0.90625 l 0.85938,-3.4e-4 v -1.71875 l 1.17187,-0.70359 v 2.42187 l 1.17188,-4.7e-4 v 0.90625 l -1.17188,4.7e-4 v 4.04688 q 0,0.5 0.0469,0.64061 0.0625,0.14059 0.20312,0.2343 0.14063,0.0781 0.40625,0.078 0.20313,-7e-5 0.51563,-0.0471 z"
       fill-rule="nonzero"
       id="path57" />
    <path
       fill="#000000"
       d="m 229.29758,271.99173 v -9.5625 l 1.07812,-4.3e-4 v 0.89063 q 0.375,-0.5314 0.84375,-0.78159 0.48438,-0.26581 1.15625,-0.26608 0.875,-3.4e-4 1.54688,0.45251 0.6875,0.45285 1.03125,1.28086 0.34375,0.82797 0.34375,1.82797 0,1.04687 -0.375,1.9064 -0.375,0.8439 -1.10938,1.2973 -0.71875,0.45343 -1.53125,0.45374 -0.57812,2.4e-4 -1.04687,-0.24957 -0.46875,-0.24982 -0.76563,-0.6247 v 3.375 z m 1.0625,-6.07855 q 0,1.34375 0.53125,1.98419 0.54687,0.62476 1.3125,0.62445 0.78125,-3e-4 1.34375,-0.65677 0.5625,-0.65646 0.5625,-2.04709 0,-1.3125 -0.54688,-1.96853 -0.54687,-0.67166 -1.29687,-0.67136 -0.75,2.8e-4 -1.32813,0.70364 -0.57812,0.70334 -0.57812,2.03147 z m 6.33435,3.41937 v -6.90625 l 1.0625,-4.3e-4 v 1.04688 q 0.40625,-0.73453 0.73438,-0.96906 0.34375,-0.23449 0.76562,-0.23468 0.59375,-2.1e-4 1.20313,0.37455 l -0.40625,1.07827 q -0.4375,-0.24981 -0.85938,-0.24966 -0.39062,1.5e-4 -0.70312,0.23465 -0.29688,0.2345 -0.42188,0.64081 -0.20312,0.62509 -0.20312,1.35946 v 3.625 z m 9.18837,-2.22241 1.20313,0.14014 q -0.28125,1.06262 -1.0625,1.65667 -0.76563,0.57843 -1.96875,0.57892 -1.51563,6.1e-4 -2.40625,-0.93655 -0.89063,-0.93714 -0.89063,-2.60901 0,-1.75 0.89063,-2.70349 0.90625,-0.96912 2.34375,-0.96967 1.39062,-5.8e-4 2.26562,0.93659 0.875,0.93716 0.875,2.65591 0,0.10938 0,0.3125 l -5.15625,0.002 q 0.0625,1.1406 0.64063,1.74976 0.57812,0.59351 1.4375,0.59317 0.65625,-2.7e-4 1.10937,-0.32858 0.45313,-0.34393 0.71875,-1.0784 z m -3.84375,-1.90473 3.85938,-0.002 q -0.0781,-0.85935 -0.4375,-1.29672 -0.5625,-0.68726 -1.45313,-0.68692 -0.8125,3.3e-4 -1.35937,0.54742 -0.54688,0.53146 -0.60938,1.43774 z m 6.0531,2.06009 1.15625,-0.18795 q 0.10938,0.70309 0.54688,1.07791 0.45312,0.35919 1.25,0.35888 0.8125,-3.3e-4 1.20312,-0.32861 0.39063,-0.32828 0.39063,-0.76578 0,-0.39062 -0.35938,-0.62488 -0.23437,-0.15615 -1.1875,-0.39013 -1.29687,-0.32761 -1.79687,-0.5618 -0.48438,-0.24979 -0.75,-0.65594 -0.25,-0.42179 -0.25,-0.93741 0,-0.45313 0.20312,-0.84381 0.21875,-0.40635 0.57813,-0.67212 0.28125,-0.18759 0.75,-0.32843 0.46875,-0.14081 1.01562,-0.14103 0.8125,-3e-4 1.42188,0.23383 0.60937,0.23413 0.90625,0.64026 0.29687,0.3905 0.40625,1.06235 l -1.14063,0.15667 q -0.0781,-0.53122 -0.45312,-0.82794 -0.375,-0.31235 -1.0625,-0.31207 -0.8125,3.3e-4 -1.15625,0.26608 -0.34375,0.26578 -0.34375,0.62515 0,0.23438 0.14062,0.42182 0.15625,0.18744 0.45313,0.31232 0.17187,0.0624 1.03125,0.29647 1.25,0.32761 1.73437,0.54618 0.5,0.20291 0.78125,0.60907 0.28125,0.40612 0.28125,0.99987 0,0.59375 -0.34375,1.10953 -0.34375,0.51575 -1,0.79727 -0.64062,0.2815 -1.45312,0.28183 -1.34375,5.2e-4 -2.04688,-0.5617 -0.70312,-0.56223 -0.90625,-1.65589 z m 6.66406,-0.003 1.15625,-0.18796 q 0.10936,0.7031 0.54686,1.07791 0.45313,0.35919 1.25,0.35889 0.8125,-3.4e-4 1.20313,-0.32861 0.39062,-0.32828 0.39062,-0.76578 0,-0.39063 -0.35937,-0.62488 -0.23438,-0.15613 -1.1875,-0.39014 -1.29688,-0.3276 -1.79686,-0.56179 -0.48438,-0.24979 -0.75,-0.65595 -0.25,-0.42178 -0.25,-0.93741 0,-0.45312 0.20312,-0.84381 0.21875,-0.40634 0.57813,-0.67212 0.28123,-0.18759 0.74998,-0.32843 0.46875,-0.14081 1.01563,-0.14102 0.8125,-3.1e-4 1.42187,0.23383 0.60938,0.23413 0.90625,0.64025 0.29688,0.39051 0.40625,1.06235 l -1.14062,0.15668 q -0.0781,-0.53122 -0.45313,-0.82794 -0.375,-0.31235 -1.0625,-0.31208 -0.8125,3.4e-4 -1.15625,0.26609 -0.34375,0.26577 -0.34375,0.62515 0,0.23437 0.14063,0.42181 0.15625,0.18744 0.45312,0.31232 0.17188,0.0624 1.03125,0.29648 1.25,0.3276 1.73438,0.54617 0.5,0.20291 0.78125,0.60907 0.28125,0.40613 0.28125,0.99988 0,0.59375 -0.34375,1.10953 -0.34375,0.51574 -1,0.79727 -0.64063,0.28149 -1.45313,0.28183 -1.34375,5.2e-4 -2.04686,-0.56171 -0.70312,-0.56222 -0.90625,-1.65588 z m 7.14843,-6.12784 v -1.35937 l 1.17187,-4.6e-4 v 1.35937 z m 0,8.1875 v -6.90625 l 1.17187,-4.6e-4 v 6.90625 z m 2.94546,-10e-4 v -6.90625 l 1.0625,-4e-4 v 0.98438 q 0.75,-1.14093 2.1875,-1.14151 0.625,-2.5e-4 1.15625,0.21829 0.53125,0.21854 0.78125,0.59345 0.26563,0.35925 0.375,0.85922 0.0625,0.32809 0.0625,1.14059 v 4.25 l -1.17187,4.6e-4 v -4.20312 q 0,-0.71875 -0.14063,-1.06244 -0.14062,-0.35932 -0.48437,-0.56232 -0.34375,-0.2186 -0.8125,-0.21842 -0.75,3.1e-4 -1.29688,0.46927 -0.54687,0.46897 -0.54687,1.79709 v 3.78125 z m 7.19373,0.57529 1.14062,0.15579 q 0.0781,0.53122 0.40625,0.78107 0.4375,0.31234 1.1875,0.31204 0.8125,-3.4e-4 1.25,-0.32861 0.45313,-0.31269 0.60938,-0.9065 0.0937,-0.35944 0.0781,-1.50003 -0.76562,0.90656 -1.90625,0.90698 -1.4375,5.8e-4 -2.21875,-1.03036 -0.78125,-1.03092 -0.78125,-2.46842 0,-0.98437 0.35938,-1.81265 0.35937,-0.8439 1.03125,-1.2973 0.6875,-0.4534 1.60937,-0.45377 1.21875,-4.5e-4 2.01563,0.98358 v -0.82812 l 1.07812,-4.3e-4 v 5.96875 q 0,1.60938 -0.32812,2.28137 -0.32813,0.68766 -1.04688,1.07856 -0.70312,0.3909 -1.75,0.39132 -1.23437,4.9e-4 -2,-0.5617 -0.75,-0.5622 -0.73437,-1.67157 z m 0.98437,-4.15665 q 0,1.35938 0.53125,1.98416 0.54688,0.62479 1.35938,0.62445 0.79687,-3e-4 1.34375,-0.62555 0.54687,-0.62521 0.54687,-1.95334 0,-1.26562 -0.5625,-1.906 -0.5625,-0.64041 -1.35937,-0.64011 -0.76563,3.1e-4 -1.3125,0.64118 -0.54688,0.62521 -0.54688,1.87521 z"
       fill-rule="nonzero"
       id="path58" />
  </g>
</svg>
